<svg width="40" height="40" viewBox="0 0 40 40" fill="none" xmlns="http://www.w3.org/2000/svg">
<circle cx="20.4719" cy="28.8743" r="8.26881" fill="#D9D9D9" fill-opacity="0.2"/>
<circle cx="20.4719" cy="28.8743" r="8.26881" fill="url(#paint0_linear_3447_4895)" fill-opacity="0.6" style="mix-blend-mode:color"/>
<path d="M6 2C6 6.37859 6 13.4358 6 15.9085C6 18.9992 12.4304 28.5291 19.6509 28.5291C27.9344 28.5291 34.332 19.5143 34.332 15.1358C34.332 12.6631 34.332 6.37859 34.332 2" stroke="white" stroke-width="1.24032"/>
<path d="M18.4667 15.9082C17.2304 15.9082 15.0669 18.1966 14.7578 18.4145C15.5477 19.4679 17.5601 21.5746 20.1151 21.5746C22.6702 21.5746 24.8887 19.4679 25.5755 18.4145C24.5796 17.5791 22.4435 15.9082 21.8666 15.9082C21.2896 15.9082 20.1151 16.453 20.1151 16.453C20.1151 16.453 19.4558 15.9082 18.4667 15.9082Z" stroke="white" stroke-width="1.24032"/>
<path d="M11.8561 28.8755C13.9252 31.286 16.9645 32.4488 20.0838 32.4488C23.3426 32.4488 26.3265 30.9406 28.394 28.8741" stroke="white" stroke-width="1.24032" stroke-dasharray="2.5 0.83"/>
<defs>
<linearGradient id="paint0_linear_3447_4895" x1="20.4719" y1="20.6055" x2="20.4719" y2="37.1431" gradientUnits="userSpaceOnUse">
<stop stop-color="#FF4D8E"/>
<stop offset="1" stop-color="#A719D2"/>
</linearGradient>
</defs>
</svg>
