<svg width="32" height="32" viewBox="0 0 32 32" fill="none" xmlns="http://www.w3.org/2000/svg">
<g filter="url(#filter0_d_557_614)">
<path fill-rule="evenodd" clip-rule="evenodd" d="M16 5C9.92487 5 5 9.92487 5 16C5 22.0751 9.92487 27 16 27C22.0751 27 27 22.0751 27 16C27 9.92487 22.0751 5 16 5ZM16 25C20.9706 25 25 20.9706 25 16C25 11.0294 20.9706 7 16 7C11.0294 7 7 11.0294 7 16C7 20.9706 11.0294 25 16 25Z" fill="white"/>
<path d="M12.1504 13.2222C12.2971 10.5163 14.4404 9.57495 16.3969 9.57495C18.5542 9.57495 20.4004 11.2587 20.4004 13.2436C20.4004 14.9651 19.544 15.692 18.6036 16.4307L18.5911 16.4404C17.4628 17.3246 17.1004 17.6086 17.1004 18.75C16.6533 18.7542 16.1817 18.7529 15.687 18.7515C15.4309 18.7507 15.1686 18.75 14.9004 18.75C14.9004 17.3049 15.6825 16.3118 16.8185 15.459C17.7311 14.7506 18.3086 14.2848 18.3086 13.2716C18.3086 11.9554 17.3389 11.4081 16.2796 11.4081C15.0411 11.4081 14.3462 12.1708 14.2073 13.2174C13.8521 13.2174 13.5435 13.2185 13.2277 13.2197C12.897 13.2209 12.5583 13.2222 12.1504 13.2222Z" fill="white"/>
<path d="M17.1004 22.05V19.85H14.9004V22.05H17.1004Z" fill="white"/>
</g>
<defs>
<filter id="filter0_d_557_614" x="2" y="2" width="28" height="28" filterUnits="userSpaceOnUse" color-interpolation-filters="sRGB">
<feFlood flood-opacity="0" result="BackgroundImageFix"/>
<feColorMatrix in="SourceAlpha" type="matrix" values="0 0 0 0 0 0 0 0 0 0 0 0 0 0 0 0 0 0 127 0" result="hardAlpha"/>
<feOffset/>
<feGaussianBlur stdDeviation="1"/>
<feComposite in2="hardAlpha" operator="out"/>
<feColorMatrix type="matrix" values="0 0 0 0 0 0 0 0 0 0 0 0 0 0 0 0 0 0 0.58 0"/>
<feBlend mode="normal" in2="BackgroundImageFix" result="effect1_dropShadow_557_614"/>
<feBlend mode="normal" in="SourceGraphic" in2="effect1_dropShadow_557_614" result="shape"/>
</filter>
</defs>
</svg>
