<svg width="48" height="48" viewBox="0 0 48 48" fill="none" xmlns="http://www.w3.org/2000/svg">
<path fill-rule="evenodd" clip-rule="evenodd" d="M27.202 12.6878C27.4282 11.8682 26.3673 11.3286 25.8381 11.994L15.856 24.5472C15.4465 25.0622 15.8185 25.8218 16.4764 25.814L22.884 25.7387L19.6353 35.3708C19.3579 36.1934 20.4287 36.7868 20.9791 36.1154L32.1332 22.5105C32.5489 22.0035 32.1924 21.2408 31.5367 21.2346L24.8609 21.1717L27.202 12.6878Z" fill="#1A1A1A"/>
<path fill-rule="evenodd" clip-rule="evenodd" d="M24 6.19048C14.1641 6.19048 6.19048 14.1641 6.19048 24C6.19048 33.8359 14.1641 41.8095 24 41.8095C33.8359 41.8095 41.8095 33.8359 41.8095 24C41.8095 14.1641 33.8359 6.19048 24 6.19048ZM2 24C2 11.8497 11.8497 2 24 2C36.1503 2 46 11.8497 46 24C46 36.1503 36.1503 46 24 46C11.8497 46 2 36.1503 2 24Z" fill="#1A1A1A"/>
</svg>
