<svg width="49" height="48" viewBox="0 0 49 48" fill="none" xmlns="http://www.w3.org/2000/svg">
<path fill-rule="evenodd" clip-rule="evenodd" d="M25.2385 4.46085L18.0618 24.0707C17.1823 26.474 15.0894 28.227 12.5691 28.6714L1.64772 30.5972L0.953125 26.6579L11.8745 24.7322C12.9899 24.5355 13.9162 23.7597 14.3055 22.696L21.8915 1.96784C22.3895 0.60708 23.8359 -0.156661 25.2404 0.199476C29.7041 1.33126 32.3604 5.91632 31.1218 10.3516L29.0527 17.7614L37.7124 16.2344L37.7124 16.2346L40.4499 15.7519C43.7212 15.1751 46.8407 17.3594 47.4175 20.6307C47.6927 22.1916 47.3393 23.718 46.5391 24.95C47.6134 25.8282 48.39 27.081 48.6499 28.5546C49.1039 31.1294 47.8446 33.6099 45.6911 34.8268C45.9663 35.3282 46.1653 35.8826 46.2702 36.4772C46.7846 39.3949 44.8365 42.1771 41.9188 42.6916L41.8828 42.6979L41.8836 42.7028L40.3125 42.9748L37.736 43.4291C37.6314 43.4476 37.5271 43.4628 37.4229 43.475L14.3397 47.4708L13.6575 43.5294L31.9205 40.368C31.7376 39.9654 31.602 39.5334 31.5217 39.0778C31.2322 37.4361 31.7224 35.8373 32.7262 34.6613C31.9692 33.8438 31.4306 32.8063 31.2227 31.6275C30.9308 29.9718 31.3473 28.3551 32.2545 27.0883C31.279 26.2199 30.5782 25.029 30.3338 23.643C30.2111 22.9471 30.2133 22.258 30.3244 21.5988L29.5243 21.7399C26.7281 22.233 24.3755 19.6383 25.1392 16.9036L27.2692 9.27572C27.8064 7.35224 26.913 5.37373 25.2385 4.46085ZM41.8403 23.6597C41.7914 23.6671 41.7425 23.6751 41.6936 23.6838L36.5218 24.5957C35.4575 24.7376 34.4612 24.0157 34.273 22.9484C34.0798 21.8527 34.8115 20.8078 35.9072 20.6146L41.1445 19.6911C42.2402 19.4979 43.2851 20.2295 43.4783 21.3253C43.6715 22.421 42.9398 23.4658 41.8441 23.6591L41.8403 23.6597ZM37.1545 28.5458L36.7882 28.6104C35.6978 28.8027 34.9697 29.8425 35.162 30.9329C35.3542 32.0233 36.394 32.7514 37.4845 32.5591L43.0844 31.5717C44.1748 31.3794 44.9029 30.3396 44.7107 29.2492C44.5234 28.1871 43.532 27.4688 42.473 27.6099L37.3014 28.5218C37.2524 28.5304 37.2034 28.5384 37.1545 28.5458ZM36.8875 39.5082C36.2038 39.5507 35.5827 39.0737 35.4609 38.3832C35.3301 37.6412 35.8255 36.9335 36.5676 36.8027L40.7504 36.0652C41.4925 35.9343 42.2001 36.4298 42.3309 37.1718C42.4618 37.9139 41.9663 38.6215 41.2242 38.7523L39.6232 39.0346L36.8875 39.5082ZM20.1654 29.25C22.2607 29.25 23.9593 27.5514 23.9593 25.4561H27.9593C27.9593 29.7606 24.4698 33.25 20.1654 33.25V29.25Z" fill="#1A1A1A"/>
</svg>
