<svg width="48" height="48" viewBox="0 0 48 48" fill="none" xmlns="http://www.w3.org/2000/svg">
<path fill-rule="evenodd" clip-rule="evenodd" d="M37 2H11C6.58172 2 3 5.58172 3 10V38C3 42.4183 6.58172 46 11 46H37C41.4183 46 45 42.4183 45 38V10C45 5.58172 41.4183 2 37 2ZM41 10C41 7.79086 39.2091 6 37 6H11C8.79086 6 7 7.79086 7 10V38C7 40.2091 8.79086 42 11 42H37C39.2091 42 41 40.2091 41 38V10ZM28.9539 19.1695C28.6307 22.2922 26.1185 24.5907 23.3426 24.3035C20.5667 24.0162 18.5783 21.252 18.9014 18.1294C19.2246 15.0067 21.7368 12.7082 24.5127 12.9954C27.2886 13.2827 29.277 16.0469 28.9539 19.1695ZM14.4473 30.8403C14.4473 30.3294 14.7362 29.8624 15.1934 29.6344L20.961 26.7582C23.0436 25.7197 25.4931 25.7197 27.5757 26.7582L33.3432 29.6344C33.8004 29.8624 34.0894 30.3294 34.0894 30.8403V32.6237C34.0894 33.3679 33.4861 33.9712 32.7419 33.9712H15.7947C15.0506 33.9712 14.4473 33.3679 14.4473 32.6237V30.8403Z" fill="black"/>
</svg>
