<svg width="48" height="48" viewBox="0 0 48 48" fill="none" xmlns="http://www.w3.org/2000/svg">
<path fill-rule="evenodd" clip-rule="evenodd" d="M37 4C40.3137 4 43 6.68629 43 10V32C43 35.3137 40.3137 38 37 38H27.7284C27.3966 38 27.0803 38.1406 26.8579 38.3869L21.4847 44.3401L18.5153 41.6599L23.8886 35.7068C24.8694 34.6202 26.2646 34 27.7284 34H37C38.1046 34 39 33.1046 39 32V10C39 8.89543 38.1046 8 37 8H11C9.89543 8 9 8.89543 9 10V32C9 33.1046 9.89543 34 11 34H17.069V38H11C7.68629 38 5 35.3137 5 32V10C5 6.68629 7.68629 4 11 4H37ZM14 17H33V13H14V17ZM25 25H14V21H25V25Z" fill="#1A1A1A"/>
</svg>
