<svg width="18" height="18" viewBox="0 0 18 18" fill="none" xmlns="http://www.w3.org/2000/svg">
<path fill-rule="evenodd" clip-rule="evenodd" d="M7.56995 1.21838C4.27829 1.21838 1.60986 3.88681 1.60986 7.17847C1.60986 10.4701 4.27829 13.1386 7.56995 13.1386C8.80972 13.1386 9.96108 12.76 10.9148 12.1122L15.3207 16.857L16.6946 15.5812L12.2817 10.8288C13.0642 9.82029 13.53 8.55378 13.53 7.17847C13.53 3.88681 10.8616 1.21838 7.56995 1.21838ZM3.48486 7.17847C3.48486 4.92234 5.31382 3.09338 7.56995 3.09338C9.82608 3.09338 11.655 4.92234 11.655 7.17847C11.655 9.4346 9.82608 11.2636 7.56995 11.2636C5.31382 11.2636 3.48486 9.4346 3.48486 7.17847Z" fill="#949494"/>
</svg>
