<svg width="48" height="48" viewBox="0 0 48 48" fill="none" xmlns="http://www.w3.org/2000/svg">
<path fill-rule="evenodd" clip-rule="evenodd" d="M4.79727 20.5432L10.2835 9H37.7147L43.1915 20.5234L24.255 39.9648C24.0295 40.1963 23.6571 40.1949 23.4334 39.9618L4.79727 20.5432ZM6.94204 6.71222C7.4391 5.6664 8.49365 5 9.65158 5H38.3466C39.5045 5 40.5591 5.6664 41.0561 6.71222L47.1029 19.4349C47.6416 20.5682 47.418 21.917 46.5424 22.8159L27.1204 42.7558C25.3166 44.6077 22.3374 44.5966 20.5474 42.7315L1.43325 22.8148C0.570021 21.9153 0.353035 20.5757 0.888185 19.4498L6.94204 6.71222ZM24.0004 25.7151L15.7718 17.4866L12.9434 20.315L22.5861 29.9578C23.3672 30.7388 24.6335 30.7388 25.4146 29.9578L35.0574 20.315L32.2289 17.4866L24.0004 25.7151Z" fill="#1A1A1A"/>
</svg>
