<svg width="32" height="32" viewBox="0 0 32 32" fill="none" xmlns="http://www.w3.org/2000/svg">
<rect x="4.22056" y="2.9" width="23.2943" height="3.21887" rx="1.60943" stroke="#3B3B3B" stroke-width="1.8"/>
<path d="M5.83019 20.8865C5.69811 21.1507 5.51321 21.9167 5.83019 22.8677C6.14717 23.8186 5.43396 24.8277 5.03774 25.2133M5.03774 25.2133C2.92391 22.4796 2 19.0508 2 16.1318C2 11.3771 4.81761 7.723 6.22642 6.4903H26.0377C27.3585 7.94313 30 11.9054 30 16.1318C30 21.4148 25.6415 30.1318 15.7358 30.1318C12.2374 30.1318 9.49681 29.1269 7.41509 27.5651M5.03774 25.2133C5.7078 26.0799 6.49743 26.8766 7.41509 27.5651M8.60377 22.8677C8.33962 23.2427 7.96981 24.237 8.60377 25.2133C9.23774 26.1896 8.07547 27.1879 7.41509 27.5651M17.4528 27.3582C18.8616 27.3142 22.1811 26.5129 24.1887 23.6601M10.1887 12.2854C8.00568 13.3449 6.32249 15.0844 5.56604 16.1318C5.56604 16.5542 7.24136 18.4898 9.55492 19.8299M10.1887 12.2854C11.309 11.7417 12.5609 11.3771 13.8868 11.3771C17.7962 11.3771 20.5346 13.5783 21.4151 14.679L25.2453 12.4337V19.8299L21.4151 17.7167C20.3145 18.8614 17.2679 21.1507 13.8868 21.1507C12.3639 21.1507 10.8581 20.5848 9.55492 19.8299M10.1887 12.2854C10.7787 13.7877 11.4781 17.3997 9.55492 19.8299" stroke="#3B3B3B" stroke-width="1.8" stroke-linecap="round"/>
<circle cx="8.73582" cy="16.1318" r="0.660377" fill="#3B3B3B"/>
</svg>
