<svg width="36" height="36" viewBox="0 0 36 36" fill="none" xmlns="http://www.w3.org/2000/svg">
<path d="M15.8921 3.59961C17.9923 3.59961 19.6947 5.30216 19.6948 7.40234V14.7959C22.5899 16.2065 24.5845 19.1781 24.5845 22.6152C24.5843 27.4158 20.6927 31.3076 15.8921 31.3076C11.0916 31.3075 7.19991 27.4157 7.19971 22.6152C7.19971 19.1783 9.19445 16.2065 12.0894 14.7959V7.40234C12.0895 5.30223 13.792 3.59972 15.8921 3.59961Z" fill="#00A4A3"/>
<path d="M15.3496 28.0476C13.7198 28.0476 11.0034 26.4178 11.0034 23.7014" stroke="#DFF0FB" stroke-width="1.79797" stroke-linecap="round"/>
<path d="M24.0415 6.85987C24.0415 6.25978 24.528 5.77332 25.1281 5.77332L28.931 5.77332C29.5311 5.77332 30.0176 6.25978 30.0176 6.85987C30.0176 7.45996 29.5311 7.94643 28.931 7.94643H25.1281C24.528 7.94643 24.0415 7.45996 24.0415 6.85987Z" fill="#00A4A3"/>
<path d="M24.0415 10.6627C24.0415 10.0626 24.528 9.57617 25.1281 9.57617H27.8444C28.4445 9.57617 28.931 10.0626 28.931 10.6627C28.931 11.2628 28.4445 11.7493 27.8444 11.7493H25.1281C24.528 11.7493 24.0415 11.2628 24.0415 10.6627Z" fill="#00A4A3"/>
<path d="M24.0415 14.4657C24.0415 13.8656 24.528 13.3792 25.1281 13.3792L28.931 13.3792C29.5311 13.3792 30.0176 13.8656 30.0176 14.4657C30.0176 15.0658 29.5311 15.5523 28.931 15.5523H25.1281C24.528 15.5523 24.0415 15.0658 24.0415 14.4657Z" fill="#00A4A3"/>
</svg>
