<svg width="37" height="36" viewBox="0 0 37 36" fill="none" xmlns="http://www.w3.org/2000/svg">
<circle cx="18.5" cy="17.5" r="14.5" fill="#398AFF"/>
<path d="M14.2978 25.9886C13.5344 25.9886 12.8262 25.8644 12.1732 25.6161C11.5293 25.3677 10.9683 25.0182 10.49 24.5675C10.0209 24.1169 9.65303 23.588 9.3863 22.981C9.12877 22.3739 9 21.7117 9 20.9943C9 20.2769 9.12877 19.6146 9.3863 19.0076C9.65303 18.4006 10.0255 17.8717 10.5038 17.421C10.9821 16.9703 11.5431 16.6208 12.187 16.3725C12.8308 16.1242 13.5298 16 14.284 16C15.0474 16 15.7464 16.1242 16.3811 16.3725C17.0249 16.6208 17.5813 16.9703 18.0504 17.421C18.5287 17.8717 18.9012 18.4006 19.1679 19.0076C19.4346 19.6054 19.568 20.2677 19.568 20.9943C19.568 21.7117 19.4346 22.3785 19.1679 22.9948C18.9012 23.6018 18.5287 24.1307 18.0504 24.5813C17.5813 25.0228 17.0249 25.3677 16.3811 25.6161C15.7464 25.8644 15.052 25.9886 14.2978 25.9886ZM14.284 24.0847C14.7163 24.0847 15.1118 24.0111 15.4705 23.8639C15.8384 23.7168 16.1603 23.5052 16.4362 23.2293C16.7122 22.9534 16.9237 22.6269 17.0709 22.2498C17.2272 21.8727 17.3054 21.4542 17.3054 20.9943C17.3054 20.5344 17.2272 20.1159 17.0709 19.7388C16.9237 19.3617 16.7122 19.0352 16.4362 18.7593C16.1695 18.4833 15.8522 18.2718 15.4843 18.1246C15.1164 17.9775 14.7163 17.9039 14.284 17.9039C13.8517 17.9039 13.4516 17.9775 13.0837 18.1246C12.725 18.2718 12.4077 18.4833 12.1318 18.7593C11.8558 19.0352 11.6397 19.3617 11.4833 19.7388C11.3362 20.1159 11.2626 20.5344 11.2626 20.9943C11.2626 21.445 11.3362 21.8635 11.4833 22.2498C11.6397 22.6269 11.8512 22.9534 12.118 23.2293C12.3939 23.5052 12.7158 23.7168 13.0837 23.8639C13.4516 24.0111 13.8517 24.0847 14.284 24.0847Z" fill="white"/>
<path d="M22.2802 26.2334V25.3141L24.6439 23.0817C24.8307 22.9124 24.9678 22.7607 25.0554 22.6264C25.1429 22.4922 25.2013 22.3696 25.2305 22.2587C25.2655 22.1478 25.283 22.0457 25.283 21.9523C25.283 21.7072 25.1984 21.5204 25.0291 21.392C24.8657 21.2578 24.6235 21.1906 24.3025 21.1906C24.0457 21.1906 23.8064 21.2403 23.5846 21.3395C23.3687 21.4387 23.1848 21.5934 23.0331 21.8035L22 21.1381C22.2335 20.7879 22.5603 20.5107 22.9805 20.3064C23.4008 20.1021 23.8852 20 24.4338 20C24.8891 20 25.2859 20.0759 25.6245 20.2276C25.9688 20.3735 26.2344 20.5807 26.4211 20.8492C26.6137 21.1177 26.71 21.4387 26.71 21.8122C26.71 22.0107 26.6838 22.2091 26.6312 22.4075C26.5846 22.6002 26.4853 22.8044 26.3336 23.0204C26.1877 23.2363 25.9717 23.4785 25.6857 23.747L23.7247 25.5943L23.4533 25.0777H26.9114V26.2334H22.2802Z" fill="white"/>
<circle cx="21.1402" cy="11.1402" r="4.1402" fill="white"/>
<path d="M20.5489 8.18286C19.9575 8.28144 18.6563 8.95176 18.1831 10.8444" stroke="#398AFF" stroke-width="0.591458" stroke-linecap="round"/>
</svg>
