<svg width="48" height="48" viewBox="0 0 48 48" fill="none" xmlns="http://www.w3.org/2000/svg">
<path fill-rule="evenodd" clip-rule="evenodd" d="M19.9649 7.00002C19.7232 7.00002 19.4898 7.0875 19.3077 7.24628L12.6709 13.0327C11.8002 13.7919 10.6825 14.2064 9.53047 14.2064L6.00165 14.2064C5.44883 14.2064 5.0009 14.6549 5.00165 15.2077L5.03117 37.0014C5.03192 37.5531 5.47941 38 6.03117 38H42C42.5523 38 43 37.5523 43 37V15.2064C43 14.6541 42.5523 14.2064 42 14.2064H38.4607C37.3064 14.2064 36.1868 13.7903 35.3154 13.0285L28.7023 7.24716C28.5201 7.08783 28.2862 7.00002 28.0441 7.00002H19.9649ZM17.2659 3.71958C17.8011 3.25295 18.4856 3 19.189 3H28.8216C29.5263 3 30.212 3.2539 30.7476 3.72214L37.9482 10.0171C38.0841 10.1359 38.2662 10.2064 38.4607 10.2064H43.1665C44.2126 10.2064 45.1698 10.6248 45.8642 11.3066C46.5593 11.989 47 12.9457 47 14.0067V38.1997C47 39.2607 46.5593 40.2173 45.8642 40.8998C45.1698 41.5816 44.2127 42 43.1665 42H4.8663C3.82108 42 2.86459 41.5823 2.17031 40.9015C1.4754 40.2201 1.03418 39.2647 1.03278 38.2047L1 14.0117C0.998623 12.9507 1.43814 11.9934 2.13232 11.31C2.82536 10.6278 3.78184 10.2077 4.8275 10.2064L9.53047 10.2064C9.72459 10.2064 9.90636 10.1362 10.0422 10.0177L17.2659 3.71958Z" fill="#1A1A1A"/>
<path fill-rule="evenodd" clip-rule="evenodd" d="M24 19C20.9624 19 18.5 21.4624 18.5 24.5C18.5 27.5376 20.9625 30 24 30C27.0376 30 29.5 27.5376 29.5 24.5C29.5 21.4624 27.0376 19 24 19ZM14.5 24.5C14.5 19.2533 18.7533 15 24 15C29.2467 15 33.5 19.2533 33.5 24.5C33.5 29.7467 29.2467 34 24 34C18.7533 34 14.5 29.7467 14.5 24.5Z" fill="#1A1A1A"/>
</svg>
