<svg width="48" height="48" viewBox="0 0 48 48" fill="none" xmlns="http://www.w3.org/2000/svg">
<path fill-rule="evenodd" clip-rule="evenodd" d="M23.2476 0C19.2666 0 16.0393 3.22728 16.0393 7.20833V12.0657L8.53078 13.3223C5.65141 13.7476 3.47611 16.1834 3.4318 19.1197C3.38372 22.3061 3.34896 27.1716 3.49933 30.812C3.60583 33.3903 3.85909 36.6614 4.08342 39.2684C4.19594 40.5761 4.30188 41.7244 4.3797 42.5461C4.41862 42.957 4.45053 43.2864 4.47274 43.5135L4.49846 43.7747L4.50764 43.8669L4.68844 45.667H26.9981V41.667H8.31469C8.24445 40.9145 8.15869 39.9713 8.06869 38.9255C7.84531 36.3295 7.59856 33.1318 7.49592 30.647C7.4392 29.2738 7.40961 27.7103 7.39746 26.125H39.1036C39.3703 31.3656 40.1396 36.5703 41.4017 41.667H34.4565C33.5774 41.667 32.8014 41.0929 32.5441 40.2523L30.3252 33.0023L26.5003 34.1729L28.7192 41.4229C29.4911 43.9448 31.8192 45.667 34.4565 45.667H46.6201L45.7759 42.5893C43.9546 35.9491 43.0206 29.0974 42.998 22.2129V22.125H42.9978C42.9977 22.069 42.9976 22.013 42.9976 21.957V19.2446C42.9976 16.2695 40.8175 13.7437 37.8743 13.309L30.456 12.0657V7.20833C30.456 3.22728 27.2287 0 23.2476 0ZM38.9978 22.125C38.9977 22.069 38.9976 22.013 38.9976 21.957V19.2446C38.9976 18.2529 38.2709 17.411 37.2898 17.2661L29.0125 15.8959C27.5439 15.679 26.456 14.4186 26.456 12.934V7.20833C26.456 5.43642 25.0195 4 23.2476 4C21.4757 4 20.0393 5.43642 20.0393 7.20833V12.934C20.0393 14.4186 18.9514 15.679 17.4827 15.8959L9.11521 17.2794C8.14947 17.422 7.44568 18.2301 7.43134 19.1801C7.41806 20.0604 7.40595 21.0621 7.39845 22.125H38.9978Z" fill="#1A1A1A"/>
</svg>
