<svg width="70" height="70" viewBox="0 0 70 70" fill="none" xmlns="http://www.w3.org/2000/svg">
<g clip-path="url(#clip0_2_393)">
<path d="M21.2024 17.7827C30.1605 7.76578 45.8389 7.76578 54.797 17.7827V17.7827C56.9364 20.175 59.5622 22.0827 62.4984 23.3781V23.3781C74.7934 28.8024 79.6382 43.7135 72.8798 55.3286V55.3286C71.2657 58.1025 70.2628 61.1892 69.9381 64.3821V64.3821C68.5786 77.7515 55.8945 86.967 42.7594 84.1286V84.1286C39.6225 83.4507 36.3769 83.4507 33.24 84.1286V84.1286C20.1049 86.967 7.42077 77.7515 6.0613 64.3821V64.3821C5.73663 61.1892 4.73369 58.1025 3.11963 55.3286V55.3286C-3.63885 43.7135 1.20604 28.8024 13.501 23.3781V23.3781C16.4372 22.0827 19.063 20.175 21.2024 17.7827V17.7827Z" fill="#FFCE20" fill-opacity="0.24"/>
<path d="M58.8685 12.9897C59.2238 12.5669 59.169 11.9361 58.7461 11.5808C58.3233 11.2256 57.6925 11.2804 57.3372 11.7032L55.7291 13.6174L53.4321 11.6876L55.0403 9.77347C56.4613 8.08203 58.9845 7.86282 60.6759 9.28385C62.3673 10.7049 62.5865 13.228 61.1655 14.9195L59.5574 16.8336L57.2604 14.9039L58.8685 12.9897Z" fill="#FFCE20" fill-opacity="0.24"/>
<path d="M66.5248 19.4219C66.8801 18.999 66.8253 18.3682 66.4024 18.0129C65.9795 17.6577 65.3487 17.7125 64.9935 18.1353L63.3854 20.0495L61.0884 18.1197L62.6965 16.2056C64.1176 14.5142 66.6407 14.2949 68.3322 15.716C70.0236 17.137 70.2428 19.6602 68.8218 21.3516L67.2136 23.2657L64.9167 21.336L66.5248 19.4219Z" fill="#FFCE20" fill-opacity="0.24"/>
<path d="M68.1264 9.54929C68.4816 9.12643 68.4268 8.49565 68.004 8.14039C67.5811 7.78513 66.9503 7.83993 66.5951 8.26279L64.9869 10.1769L62.69 8.24717L64.2981 6.33304C65.7191 4.6416 68.2423 4.42239 69.9337 5.84342C71.6252 7.26446 71.8444 9.78761 70.4233 11.479L68.8152 13.3932L66.5182 11.4634L68.1264 9.54929Z" fill="#FFCE20" fill-opacity="0.24"/>
<path d="M41.5 55C41.5 56.6569 40.3807 58 39 58C37.6193 58 36.5 56.6569 36.5 55C36.5 53.3431 37.6193 52 39 52C40.3807 52 41.5 53.3431 41.5 55Z" fill="#FFCC00"/>
<path d="M34.4732 39.9043L36.5945 42.0256L29.5234 49.0967L27.4021 46.9754L34.4732 39.9043Z" fill="#FFCC00"/>
<path d="M27.4013 42.0248L29.5227 39.9035L36.5937 46.9746L34.4724 49.0959L27.4013 42.0248Z" fill="#FFCC00"/>
<path d="M48.4732 39.9033L50.5945 42.0246L43.5234 49.0957L41.4021 46.9744L48.4732 39.9033Z" fill="#FFCC00"/>
<path d="M41.4013 42.0248L43.5227 39.9035L50.5937 46.9746L48.4724 49.0959L41.4013 42.0248Z" fill="#FFCC00"/>
</g>
<defs>
<clipPath id="clip0_2_393">
<rect width="70" height="70" fill="white"/>
</clipPath>
</defs>
</svg>
