<svg width="48" height="48" viewBox="0 0 48 48" fill="none" xmlns="http://www.w3.org/2000/svg">
<path fill-rule="evenodd" clip-rule="evenodd" d="M24 41.6C14.2798 41.6 6.4 33.7202 6.4 24C6.4 14.2798 14.2798 6.4 24 6.4C33.7202 6.4 41.6 14.2798 41.6 24C41.6 33.7202 33.7202 41.6 24 41.6ZM2 24C2 36.1503 11.8497 46 24 46C36.1503 46 46 36.1503 46 24C46 11.8497 36.1503 2 24 2C11.8497 2 2 11.8497 2 24Z" fill="#1A1A1A"/>
<path fill-rule="evenodd" clip-rule="evenodd" d="M21.8 30.6V35.55H26.2V30.6H21.8Z" fill="#1A1A1A"/>
<path fill-rule="evenodd" clip-rule="evenodd" d="M21.8 12.45V27.3H26.2V12.45H21.8Z" fill="#1A1A1A"/>
</svg>
