<svg width="51" height="51" viewBox="0 0 51 51" fill="none" xmlns="http://www.w3.org/2000/svg">
<rect width="51" height="51" rx="25.5" fill="#E8E8E8"/>
<path fill-rule="evenodd" clip-rule="evenodd" d="M16.3016 14.625H34.6982C36.7518 14.625 38.4166 16.1824 38.4166 18.1035V32.8965C38.4166 34.8176 36.7518 36.375 34.6982 36.375H16.3016C14.248 36.375 12.5833 34.8176 12.5833 32.8965V18.1035C12.5833 16.1824 14.248 14.625 16.3016 14.625ZM16.3016 17.0417C15.6748 17.0417 15.1666 17.5171 15.1666 18.1035V32.8965C15.1666 33.4829 15.6748 33.9583 16.3016 33.9583H34.6982C35.3251 33.9583 35.8333 33.4829 35.8333 32.8965V18.1035C35.8333 17.5171 35.3251 17.0417 34.6982 17.0417H16.3016Z" fill="#6C6C6C"/>
<path fill-rule="evenodd" clip-rule="evenodd" d="M23.062 26.7999C22.3561 26.5091 21.5331 26.6377 20.9665 27.1273L14.4283 33.3356L12.6753 31.5604L19.2136 25.3521C20.5355 24.2097 22.456 23.9096 24.1031 24.5882L37.6453 30.4327L36.6042 32.6444L23.062 26.7999Z" fill="#6C6C6C"/>
<path d="M33.2499 21.875C33.2499 22.876 32.3825 23.6875 31.3124 23.6875C30.2424 23.6875 29.3749 22.876 29.3749 21.875C29.3749 20.874 30.2424 20.0625 31.3124 20.0625C32.3825 20.0625 33.2499 20.874 33.2499 21.875Z" fill="#6C6C6C"/>
</svg>
