<svg width="48" height="48" viewBox="0 0 48 48" fill="none" xmlns="http://www.w3.org/2000/svg">
<path fill-rule="evenodd" clip-rule="evenodd" d="M24 2C11.8497 2 2 11.8497 2 24C2 36.1503 11.8497 46 24 46C36.1503 46 46 36.1503 46 24C46 11.8497 36.1503 2 24 2ZM24 41C33.3888 41 41 33.3888 41 24C41 14.6112 33.3888 7 24 7C14.6112 7 7 14.6112 7 24C7 33.3888 14.6112 41 24 41Z" fill="#1A1A1A"/>
<path d="M15.9219 19.1287L15.9525 18.563C16.1041 15.7669 17.2986 13.8355 18.9941 12.618C20.6693 11.415 22.7894 10.939 24.7742 10.939C29.234 10.939 33.1225 14.4207 33.1225 18.634C33.1225 20.4126 32.677 21.7134 31.9652 22.7635C31.2653 23.7958 30.3252 24.5567 29.4114 25.2745C28.2744 26.1655 27.6163 26.6826 27.2158 27.2376C26.8497 27.7447 26.6835 28.3123 26.6835 29.3657C25.0732 29.3657 22.3902 29.3657 21.318 29.3863C21.2004 26.3202 23.0597 24.1912 25.2712 22.5302C26.1733 21.8299 26.8406 21.2991 27.2951 20.7158C27.7273 20.1612 27.9678 19.5554 27.9678 18.6886C27.9678 17.5507 27.5563 16.802 26.9638 16.3256C26.3538 15.8353 25.4949 15.5891 24.5453 15.5891C23.4523 15.5891 22.6461 15.9227 22.0843 16.4448C21.5182 16.971 21.1563 17.7299 21.0336 18.6534L20.9718 19.1193H20.5017C19.8097 19.1193 19.2083 19.1216 18.5919 19.1238L18.5485 19.124C17.917 19.1263 17.2674 19.1287 16.4883 19.1287H15.9219Z" fill="#1A1A1A"/>
<path d="M26.6829 36.8779V31.5121H21.3171V36.8779H26.6829Z" fill="#1A1A1A"/>
</svg>
