<svg width="48" height="48" viewBox="0 0 48 48" fill="none" xmlns="http://www.w3.org/2000/svg">
<path fill-rule="evenodd" clip-rule="evenodd" d="M24 34C29.5228 34 34 29.5228 34 24C34 18.4772 29.5228 14 24 14C18.4772 14 14 18.4772 14 24C14 29.5228 18.4772 34 24 34ZM24 29C26.7614 29 29 26.7614 29 24C29 21.2386 26.7614 19 24 19C21.2386 19 19 21.2386 19 24C19 26.7614 21.2386 29 24 29Z" fill="#1A1A1A"/>
<path fill-rule="evenodd" clip-rule="evenodd" d="M32.1505 7.07992L30.6148 0.93689H17.3881L15.8523 7.07992C15.8421 7.0989 15.8138 7.14455 15.7496 7.21628C15.6138 7.368 15.3685 7.57552 14.9922 7.7849C14.8123 7.88504 14.6342 7.98806 14.4581 8.0939C14.092 8.31388 13.7922 8.42177 13.595 8.46313C13.5023 8.48257 13.4493 8.48432 13.428 8.48371L7.336 6.74104L0.722656 18.1957L5.27769 22.6C5.28893 22.6181 5.31429 22.6651 5.34427 22.7563C5.40724 22.9478 5.46382 23.2607 5.45673 23.6861C5.45499 23.7906 5.45411 23.8952 5.45411 24C5.45411 24.1048 5.45499 24.2094 5.45673 24.3139C5.46382 24.7392 5.40724 25.0522 5.34427 25.2436C5.31429 25.3348 5.28893 25.3819 5.27769 25.4L0.722656 29.8043L7.336 41.2589L13.428 39.5163C13.4493 39.5157 13.5023 39.5174 13.595 39.5368C13.7922 39.5782 14.092 39.6861 14.4581 39.9061C14.6342 40.0119 14.8123 40.1149 14.9922 40.2151C15.3685 40.4245 15.6138 40.632 15.7496 40.7837C15.8138 40.8554 15.8421 40.9011 15.8523 40.9201L17.3881 47.0631H30.6148L32.1505 40.92C32.1607 40.9011 32.1891 40.8554 32.2533 40.7837C32.389 40.632 32.6344 40.4245 33.0106 40.2151C33.1908 40.1148 33.369 40.0117 33.5453 39.9057C33.9114 39.6857 34.2112 39.5778 34.4085 39.5365C34.5012 39.517 34.5541 39.5153 34.5755 39.5159L40.6688 41.2589L47.2821 29.8043L42.7252 25.3982C42.714 25.3801 42.6887 25.3331 42.6587 25.2419C42.5957 25.0505 42.5391 24.7376 42.5462 24.3123C42.5479 24.2083 42.5488 24.1042 42.5488 24C42.5488 23.8955 42.5479 23.7912 42.5462 23.6871C42.5391 23.2618 42.5957 22.9489 42.6586 22.7574C42.6886 22.6663 42.714 22.6192 42.7252 22.6011L47.2814 18.1957L40.6681 6.74102L34.5753 8.48394C34.5539 8.48455 34.5009 8.4828 34.4082 8.46336C34.211 8.422 33.9112 8.31409 33.5451 8.0941C33.3689 7.98819 33.1907 7.8851 33.0106 7.78491C32.6344 7.57552 32.389 7.368 32.2533 7.21628C32.1891 7.14455 32.1607 7.0989 32.1505 7.07992ZM12.072 13.2964L9.71419 12.6219L7.00472 17.3148L8.76712 19.0189C10.0245 20.2347 10.4852 22.0207 10.456 23.7695C10.4548 23.8462 10.4541 23.923 10.4541 24C10.4541 24.077 10.4548 24.1538 10.456 24.2305C10.4852 25.9792 10.0245 27.7653 8.76712 28.9811L7.00472 30.6851L9.71419 35.3781L12.072 34.7036C13.7551 34.2221 15.533 34.7187 17.0335 35.6204C17.1621 35.6977 17.2921 35.7729 17.4235 35.846C18.9537 36.6975 20.2735 37.9892 20.6982 39.6881L21.292 42.0631H26.7109L27.3047 39.6881C27.7294 37.9892 29.0492 36.6975 30.5794 35.846C30.7109 35.7728 30.841 35.6975 30.9698 35.6201C32.4703 34.7183 34.2483 34.2217 35.9315 34.7032L38.2906 35.3781L41 30.6851L39.2358 28.9793C37.9786 27.7637 37.5178 25.9779 37.5469 24.2293C37.5481 24.153 37.5488 24.0766 37.5488 24C37.5488 23.9233 37.5481 23.8467 37.5468 23.7702C37.5178 22.0216 37.9785 20.2357 39.2358 19.02L40.9994 17.3148L38.2899 12.6219L35.9312 13.2966C34.2481 13.7781 32.4702 13.2815 30.9696 12.3798C30.8409 12.3024 30.7108 12.2271 30.5794 12.154C29.0492 11.3025 27.7294 10.0108 27.3046 8.3119L26.7109 5.93689H21.292L20.6982 8.31191C20.2735 10.0108 18.9537 11.3025 17.4235 12.154C17.2921 12.2271 17.1621 12.3023 17.0335 12.3796C15.533 13.2813 13.7551 13.7778 12.072 13.2964Z" fill="#1A1A1A"/>
</svg>
