<svg width="48" height="48" viewBox="0 0 48 48" fill="none" xmlns="http://www.w3.org/2000/svg">
<path fill-rule="evenodd" clip-rule="evenodd" d="M24 7.36585C14.8132 7.36585 7.36585 14.8132 7.36585 24C7.36585 33.1868 14.8132 40.6341 24 40.6341C33.1868 40.6341 40.6341 33.1868 40.6341 24C40.6341 14.8132 33.1868 7.36585 24 7.36585ZM2 24C2 11.8497 11.8497 2 24 2C36.1503 2 46 11.8497 46 24C46 36.1503 36.1503 46 24 46C11.8497 46 2 36.1503 2 24Z" fill="#1A1A1A"/>
<path fill-rule="evenodd" clip-rule="evenodd" d="M21.3171 17.561V12.7317H26.6829V17.561H21.3171Z" fill="#1A1A1A"/>
<path fill-rule="evenodd" clip-rule="evenodd" d="M21.3171 35.2683V20.7805H26.6829V35.2683H21.3171Z" fill="#1A1A1A"/>
</svg>
