<svg width="48" height="48" viewBox="0 0 48 48" fill="none" xmlns="http://www.w3.org/2000/svg">
<path fill-rule="evenodd" clip-rule="evenodd" d="M24 40.6341C14.8132 40.6341 7.36585 33.1868 7.36585 24C7.36585 14.8132 14.8132 7.36585 24 7.36585C33.1868 7.36585 40.6341 14.8132 40.6341 24C40.6341 33.1868 33.1868 40.6341 24 40.6341ZM2 24C2 36.1503 11.8497 46 24 46C36.1503 46 46 36.1503 46 24C46 11.8497 36.1503 2 24 2C11.8497 2 2 11.8497 2 24Z" fill="#1A1A1A"/>
<path fill-rule="evenodd" clip-rule="evenodd" d="M21.3171 30.439V35.2683H26.6829V30.439H21.3171Z" fill="#1A1A1A"/>
<path fill-rule="evenodd" clip-rule="evenodd" d="M21.3171 12.7317V27.2195H26.6829V12.7317H21.3171Z" fill="#1A1A1A"/>
</svg>
