<svg width="37" height="36" viewBox="0 0 37 36" fill="none" xmlns="http://www.w3.org/2000/svg">
<path d="M30.8154 5.4054H6.07657C4.78022 6.55771 2.1875 10.4396 2.1875 16.7485C2.1875 25.823 9.67757 30.4683 13.4226 31.6566H23.3613C25.63 31.6566 34.8125 24.7427 34.8125 16.7485C34.8125 10.3532 32.1478 6.5217 30.8154 5.4054Z" fill="#CCF0FF"/>
<path d="M13.8743 30.4936C3.54284 25.8278 3.09122 18.1097 3.55608 14.0763C3.5768 13.8966 3.78495 13.8343 3.92219 13.9522C4.23532 14.2211 4.77432 14.5052 5.98806 14.5052C8.14866 14.5052 8.36472 12.4526 10.8494 12.4526C13.3341 12.4526 13.6582 14.6132 15.9268 14.6132C18.1954 14.6132 18.7356 12.4526 20.8962 12.4526C23.0568 12.4526 24.6772 14.6132 26.4057 14.6132C28.1342 14.6132 29.2345 12.4526 30.4028 12.4526C31.5711 12.4527 32.3473 12.5607 33.6437 13.641C35.1361 21.3942 27.358 28.6322 23.3809 30.4936H13.8743Z" fill="#0BA7FF"/>
<path d="M17.681 19.0001C15.2449 19.0001 13.3015 20.3684 12.3577 21.3616C12.1325 21.5985 12.1317 21.9621 12.349 22.2062C13.2328 23.1988 14.9577 24.5603 17.681 24.5603C20.2536 24.5603 22.0378 23.2461 23.0334 22.2588C23.2992 21.9952 23.294 21.5698 23.0206 21.3141C21.982 20.343 20.068 19.0001 17.681 19.0001Z" fill="#F98010"/>
<path d="M15.628 19.3236C14.1663 19.7891 13.0194 20.6656 12.3602 21.3593C12.1351 21.5962 12.1343 21.9601 12.3516 22.2041C12.988 22.9188 14.0605 23.8248 15.628 24.2758C16.7881 22.1167 16.1114 20.0747 15.628 19.3236Z" fill="#FFE24D"/>
<path d="M25.2672 20.0143L23.3827 21.4072C23.1264 21.5966 23.1162 21.9764 23.3619 22.1793L25.2568 23.7447C25.4166 23.8767 25.658 23.763 25.658 23.5557V20.2114C25.658 20.0102 25.429 19.8947 25.2672 20.0143Z" fill="#FFD432"/>
<circle cx="13.9336" cy="21.6589" r="0.483403" fill="#F47B00"/>
</svg>
