<svg width="33" height="32" viewBox="0 0 33 32" fill="none" xmlns="http://www.w3.org/2000/svg">
<path d="M18.7727 5.24316C19.5807 5.24318 20.3575 5.55595 20.9397 6.11621L22.3049 7.43066H23.9143C26.7907 7.43066 29.1232 9.76233 29.1233 12.6387V21.9102C29.123 24.7864 26.7906 27.1182 23.9143 27.1182H9.3313C6.45497 27.118 4.12329 24.7855 4.12329 21.9092V12.6387C4.12343 9.76242 6.45505 7.43081 9.3313 7.43066H10.9417L12.3069 6.11621C12.8891 5.55602 13.6659 5.24316 14.4739 5.24316H18.7727ZM16.6223 10.9727C13.4583 10.9727 10.8938 13.5381 10.8938 16.7021C10.894 19.866 13.4584 22.4306 16.6223 22.4307C19.7863 22.4307 22.3516 19.8661 22.3518 16.7021C22.3518 13.538 19.7864 10.9727 16.6223 10.9727ZM16.6233 13.5771C18.3491 13.5772 19.7483 14.9763 19.7483 16.7021C19.7482 18.4279 18.349 19.8271 16.6233 19.8271C14.8975 19.8271 13.4984 18.4279 13.4983 16.7021C13.4983 14.9763 14.8974 13.5771 16.6233 13.5771Z" fill="#1E90FF"/>
</svg>
