<svg width="24" height="25" viewBox="0 0 24 25" fill="none" xmlns="http://www.w3.org/2000/svg">
<g id="Icon_Notification_Outlined">
<path id="Union" fill-rule="evenodd" clip-rule="evenodd" d="M11 1.40405H13V3.10738C14.6434 3.31385 16.1367 4.01992 17.3048 5.07265C18.7075 6.33676 19.6455 8.10525 19.8076 10.1066L20.1561 14.4138C20.1644 14.5165 20.1886 14.6174 20.2277 14.7127L21.6072 18.0756C22.029 19.1037 21.273 20.2311 20.1617 20.2312L17.9751 20.2313C17.5953 22 16.0228 23.3259 14.1406 23.3259C12.2586 23.3259 10.6862 22.0003 10.3063 20.2317L3.84449 20.2321C2.72929 20.2322 1.97304 19.0975 2.40227 18.0682L3.74975 14.837C3.79015 14.7401 3.81504 14.6375 3.82352 14.5328L4.18222 10.1066C4.34427 8.10529 5.28234 6.33674 6.68498 5.07265C7.85553 4.01774 9.35254 3.31092 11 3.1061V1.40405ZM12.4056 20.2316C12.7148 20.8788 13.3755 21.3259 14.1406 21.3259C14.9058 21.3259 15.5666 20.8787 15.8758 20.2314L12.4056 20.2316ZM11.9949 5.04468C10.4643 5.04468 9.06754 5.6178 8.02391 6.55834C6.98064 7.49856 6.29443 8.80139 6.1757 10.268L5.81698 14.6944C5.79155 15.0082 5.71687 15.3161 5.59568 15.6067L4.50087 18.2321L19.5093 18.2312L18.3773 15.4718C18.26 15.1857 18.1876 14.8833 18.1626 14.5751L17.8141 10.268C17.6953 8.8014 17.0091 7.49855 15.9659 6.55834C14.9222 5.6178 13.5255 5.04468 11.9949 5.04468Z" fill="#B8B8B8"/>
</g>
</svg>
