<svg width="48" height="48" viewBox="0 0 48 48" fill="none" xmlns="http://www.w3.org/2000/svg">
<path fill-rule="evenodd" clip-rule="evenodd" d="M24 2C11.8497 2 2 11.8497 2 24C2 36.1503 11.8497 46 24 46C36.1503 46 46 36.1503 46 24C46 11.8497 36.1503 2 24 2ZM24 42C33.9411 42 42 33.9411 42 24C42 14.0589 33.9411 6 24 6C14.0589 6 6 14.0589 6 24C6 33.9411 14.0589 42 24 42Z" fill="#1A1A1A"/>
<path d="M16.3008 18.4444C16.5942 13.0325 20.8809 11.1499 24.7938 11.1499C29.1083 11.1499 32.8008 14.5174 32.8008 18.4873C32.8008 21.9303 31.088 23.3839 29.2071 24.8613L29.1823 24.8808C26.9257 26.6492 26.2008 27.2173 26.2008 29.5C25.3066 29.5084 24.3633 29.5057 23.3741 29.5029C22.8618 29.5015 22.3372 29.5 21.8008 29.5C21.8008 26.6098 23.3651 24.6236 25.637 22.918C27.4622 21.5013 28.6173 20.5695 28.6173 18.5433C28.6173 15.9108 26.6778 14.8163 24.5591 14.8163C22.0822 14.8163 20.6925 16.3415 20.4145 18.4348C19.7043 18.4348 19.087 18.4371 18.4554 18.4394C17.7939 18.4419 17.1166 18.4444 16.3008 18.4444Z" fill="#1A1A1A"/>
<path d="M26.2008 36.1V31.7H21.8008V36.1H26.2008Z" fill="#1A1A1A"/>
</svg>
