<svg width="30" height="30" viewBox="0 0 30 30" fill="none" xmlns="http://www.w3.org/2000/svg">
<path d="M3 5C3.4898 5.97959 4.95918 7.93878 6.91837 7.93878C9.36735 7.93878 8.87755 5.2449 11.0816 5.2449C13.2857 5.2449 13 7.69388 15 7.69388C17 7.69388 17.2041 5.2449 19.1633 5.2449C21.1224 5.2449 21.1531 7.69388 23.3265 7.69388C25.5 7.69388 25.7755 5.2449 27 5.2449" stroke="#3B3B3B" stroke-width="2" stroke-linecap="round"/>
<path d="M3 13.5306C3.4898 14.5102 4.95918 16.4694 6.91837 16.4694C9.36735 16.4694 8.87755 13.7755 11.0816 13.7755C13.2857 13.7755 13 16.2245 15 16.2245C17 16.2245 17.2041 13.7755 19.1633 13.7755C21.1224 13.7755 21.1531 16.2245 23.3265 16.2245C25.5 16.2245 25.7755 13.7755 27 13.7755" stroke="#3B3B3B" stroke-width="2" stroke-linecap="round"/>
<path d="M3 22.0615C3.4898 23.0411 4.95918 25.0003 6.91837 25.0003C9.36735 25.0003 8.87755 22.3064 11.0816 22.3064C13.2857 22.3064 13 24.7554 15 24.7554C17 24.7554 17.2041 22.3064 19.1633 22.3064C21.1224 22.3064 21.1531 24.7554 23.3265 24.7554C25.5 24.7554 25.7755 22.3064 27 22.3064" stroke="#3B3B3B" stroke-width="2" stroke-linecap="round"/>
</svg>
