<svg width="48" height="48" viewBox="0 0 48 48" fill="none" xmlns="http://www.w3.org/2000/svg">
<path d="M10 24.5C10 26.9853 7.98528 29 5.5 29C3.01472 29 1 26.9853 1 24.5C1 22.0147 3.01472 20 5.5 20C7.98528 20 10 22.0147 10 24.5Z" fill="#1A1A1A"/>
<path d="M47 24.5C47 26.9853 44.9853 29 42.5 29C40.0147 29 38 26.9853 38 24.5C38 22.0147 40.0147 20 42.5 20C44.9853 20 47 22.0147 47 24.5Z" fill="#1A1A1A"/>
<path d="M28.5 24.5C28.5 26.9853 26.4853 29 24 29C21.5147 29 19.5 26.9853 19.5 24.5C19.5 22.0147 21.5147 20 24 20C26.4853 20 28.5 22.0147 28.5 24.5Z" fill="#1A1A1A"/>
</svg>
