<svg width="48" height="48" viewBox="0 0 48 48" fill="none" xmlns="http://www.w3.org/2000/svg">
<path d="M24.1978 26.9198L31.3987 32.9206L34.5996 29.0794L27.3987 23.0787C26.8287 22.6037 26.4991 21.9001 26.4991 21.1581V12H21.4991V21.1581C21.4991 23.384 22.4878 25.4948 24.1978 26.9198Z" fill="#1A1A1A"/>
<path fill-rule="evenodd" clip-rule="evenodd" d="M2 24C2 11.8497 11.8497 2 24 2C36.1503 2 46 11.8497 46 24C46 36.1503 36.1503 46 24 46C11.8497 46 2 36.1503 2 24ZM41 24C41 33.3888 33.3888 41 24 41C14.6112 41 7 33.3888 7 24C7 14.6112 14.6112 7 24 7C33.3888 7 41 14.6112 41 24Z" fill="#1A1A1A"/>
</svg>
