<svg width="48" height="48" viewBox="0 0 48 48" fill="none" xmlns="http://www.w3.org/2000/svg">
<path fill-rule="evenodd" clip-rule="evenodd" d="M24.0007 9.076C19.2078 9.076 14.9432 11.3324 12.2084 14.8514L8.14496 11.6935C11.8127 6.97402 17.5518 3.92969 24.0007 3.92969C35.0854 3.92969 44.0713 12.9156 44.0713 24.0003H38.925C38.925 15.7578 32.2432 9.076 24.0007 9.076ZM9.0764 24.0003C9.0764 32.2428 15.7582 38.9246 24.0007 38.9246C28.9599 38.9246 33.3545 36.5084 36.0725 32.7777L40.232 35.8081C36.587 40.8111 30.6744 44.0709 24.0007 44.0709C12.916 44.0709 3.93008 35.085 3.93008 24.0003H9.0764Z" fill="#1A1A1A"/>
<path d="M40.6673 29.2014C41.0622 29.7938 41.9327 29.7938 42.3276 29.2014L47.8308 20.9466C48.2728 20.2836 47.7975 19.3955 47.0007 19.3955H35.9943C35.1974 19.3955 34.7221 20.2836 35.1641 20.9466L40.6673 29.2014Z" fill="#1A1A1A"/>
<path d="M5.67244 18.7992C6.06733 18.2069 6.93775 18.2069 7.33265 18.7992L12.8358 27.054C13.2778 27.717 12.8026 28.6051 12.0057 28.6051H0.999339C0.202511 28.6051 -0.272766 27.717 0.169235 27.054L5.67244 18.7992Z" fill="#1A1A1A"/>
</svg>
