<svg width="30" height="30" viewBox="0 0 30 30" fill="none" xmlns="http://www.w3.org/2000/svg">
<rect x="5" y="2" width="20" height="4" rx="2" stroke="#3B3B3B" stroke-width="2"/>
<path d="M7 6L4.07798 9.65253C3.72264 10.0967 4.12833 10.7518 4.68623 10.6409C7.25137 10.1308 11.1408 9.5 14 9.5C17.9431 9.5 22.654 10.2678 25.4416 10.4578C25.9069 10.4896 26.1855 9.99625 25.9059 9.62301C24.7035 8.01811 23.1416 6.70816 23 6" stroke="#3B3B3B" stroke-width="2" stroke-linecap="round"/>
<path d="M5.5 10.5V15.5M24 10.5V15M5.5 15.5V26C5.5 27.1046 6.39543 28 7.5 28H22C23.1046 28 24 27.1046 24 26V15M5.5 15.5C6.11971 15.3761 7.42147 15.3259 8.70616 15.8018M11 17.5C10 16.5 9.14901 15.9658 8.70616 15.8018M8.70616 15.8018C9.8041 14.7012 11.8 13.2 15 14C16.3104 14.3276 17.7638 15.4422 18.5166 16.5M19 18C19 17.5 18.9128 17.0567 18.5166 16.5M18.5166 16.5C19.0111 15.5 20.8 13.8 24 15M9.5 21.5C10 22.5 11.9 24.4 15.5 24" stroke="#3B3B3B" stroke-width="2" stroke-linecap="round"/>
</svg>
