<svg width="30" height="30" viewBox="0 0 30 30" fill="none" xmlns="http://www.w3.org/2000/svg">
<path d="M7.5 4.75H10.625C12.1438 4.75 13.375 5.98122 13.375 7.5V13.125C13.375 13.2631 13.2631 13.375 13.125 13.375H7.5C5.98122 13.375 4.75 12.1438 4.75 10.625V7.5L4.76465 7.21875C4.90553 5.8321 6.07618 4.75 7.5 4.75Z" stroke="#3B3B3B" stroke-width="2"/>
<path d="M7.5 16.625H13.125C13.2631 16.625 13.375 16.7369 13.375 16.875V22.5C13.375 24.0188 12.1438 25.25 10.625 25.25H7.5C5.98122 25.25 4.75 24.0188 4.75 22.5V19.375L4.76465 19.0938C4.90553 17.7071 6.07618 16.625 7.5 16.625Z" stroke="#3B3B3B" stroke-width="2"/>
<path d="M19.375 4.75H22.5C24.0188 4.75 25.25 5.98122 25.25 7.5V10.625C25.25 12.1438 24.0188 13.375 22.5 13.375H16.875C16.7369 13.375 16.625 13.2631 16.625 13.125V7.5C16.625 5.98122 17.8562 4.75 19.375 4.75Z" stroke="#3B3B3B" stroke-width="2"/>
<path d="M16.875 16.625H22.5C24.0188 16.625 25.25 17.8562 25.25 19.375V22.5C25.25 24.0188 24.0188 25.25 22.5 25.25H19.375C17.8562 25.25 16.625 24.0188 16.625 22.5V16.875L16.6299 16.8242C16.6533 16.7105 16.7543 16.625 16.875 16.625Z" stroke="#3B3B3B" stroke-width="2"/>
</svg>
