<svg width="48" height="48" viewBox="0 0 48 48" fill="none" xmlns="http://www.w3.org/2000/svg">
<path fill-rule="evenodd" clip-rule="evenodd" d="M24.0752 8C15.1892 8 8 15.1713 8 24C8 32.8287 15.1892 40 24.0752 40C28.6371 40 32.7509 38.1113 35.6781 35.0737C37.0449 33.6555 38.1505 31.9888 38.9203 30.1506C39.4573 28.8682 39.8313 27.5012 40.0167 26.0745L40.2743 24.0912L44.241 24.6065L43.9833 26.5898C43.7513 28.3758 43.2827 30.0887 42.6098 31.6956C41.6457 33.9979 40.2632 36.0803 38.5584 37.8493C34.9066 41.6388 29.7652 44 24.0752 44C12.9958 44 4 35.0535 4 24C4 12.9465 12.9958 4 24.0752 4H26.0752V8H24.0752Z" fill="#1A1A1A"/>
<path fill-rule="evenodd" clip-rule="evenodd" d="M16.555 21.2612L21.9843 26.6905C22.4026 27.1088 23.0907 27.0745 23.4653 26.6166L36.9406 10.1468L40.0364 12.6798L26.5611 29.1495C24.688 31.439 21.2475 31.6106 19.1558 29.5189L13.7266 24.0896L16.555 21.2612Z" fill="#1A1A1A"/>
</svg>
