<svg width="40" height="40" viewBox="0 0 40 40" fill="none" xmlns="http://www.w3.org/2000/svg">
<path d="M5 21.1154C7.15458 18.2885 13.3311 12.6346 20.8003 12.6346C28.2695 12.6346 33.0848 17.2115 35 19.5M5 21.1154C6.43639 17.0769 11.4637 9 20.0821 9C28.7004 9 33.3242 16 35 19.5M5 21.1154C6.40838 22.3473 9.53524 24.3845 13.6183 25.6478M35 19.5C33.7633 21.0647 31.8318 23.6396 27.9822 25.2678M20.8003 26.7692V30M20.8003 26.7692C18.2134 26.7692 15.7817 26.3171 13.6183 25.6478M20.8003 26.7692C23.4464 26.7692 25.8702 26.161 27.9822 25.2678M11.8228 27.9808L13.6183 25.6478M27.9822 25.2678L29.4186 27.5769" stroke="white" stroke-width="1.24"/>
<circle cx="20.2907" cy="17.8727" r="4.6707" stroke="white" stroke-width="1.24"/>
<circle cx="20.2355" cy="18.2355" r="8.23554" fill="#D9D9D9" fill-opacity="0.2"/>
<circle cx="20.2355" cy="18.2355" r="8.23554" fill="url(#paint0_linear_3447_5097)" fill-opacity="0.6" style="mix-blend-mode:color"/>
<defs>
<linearGradient id="paint0_linear_3447_5097" x1="20.2355" y1="10" x2="20.2355" y2="26.4711" gradientUnits="userSpaceOnUse">
<stop stop-color="#FF4D8E"/>
<stop offset="1" stop-color="#A719D2"/>
</linearGradient>
</defs>
</svg>
