<svg width="48" height="48" viewBox="0 0 48 48" fill="none" xmlns="http://www.w3.org/2000/svg">
<path fill-rule="evenodd" clip-rule="evenodd" d="M27.1273 12.9509C27.3482 12.1504 26.3119 11.6234 25.7951 12.2733L16.0451 24.5346C15.6451 25.0376 16.0084 25.7795 16.6511 25.7719L22.9097 25.6984L19.7365 35.1064C19.4655 35.9099 20.5114 36.4895 21.049 35.8338L31.9438 22.5453C32.3498 22.05 32.0015 21.3051 31.3611 21.299L24.8405 21.2376L27.1273 12.9509Z" fill="#1A1A1A"/>
<path fill-rule="evenodd" clip-rule="evenodd" d="M24 7.11628C14.6754 7.11628 7.11628 14.6754 7.11628 24C7.11628 33.3246 14.6754 40.8837 24 40.8837C33.3246 40.8837 40.8837 33.3246 40.8837 24C40.8837 14.6754 33.3246 7.11628 24 7.11628ZM2 24C2 11.8497 11.8497 2 24 2C36.1503 2 46 11.8497 46 24C46 36.1503 36.1503 46 24 46C11.8497 46 2 36.1503 2 24Z" fill="#1A1A1A"/>
</svg>
