<svg width="48" height="48" viewBox="0 0 48 48" fill="none" xmlns="http://www.w3.org/2000/svg">
<path fill-rule="evenodd" clip-rule="evenodd" d="M24.0007 8.56139C19.0422 8.56139 14.6302 10.8966 11.8021 14.5357L8.5513 12.0093C12.1258 7.40988 17.7174 4.44434 24.0007 4.44434C34.8012 4.44434 43.5567 13.1998 43.5567 24.0003H39.4396C39.4396 15.4736 32.5274 8.56139 24.0007 8.56139ZM8.56176 24.0003C8.56176 32.527 15.474 39.4393 24.0007 39.4393C29.1313 39.4393 33.6777 36.9387 36.4885 33.0808L39.816 35.5051C36.2637 40.3809 30.5029 43.5563 24.0007 43.5563C13.2002 43.5563 4.44472 34.8008 4.44472 24.0003H8.56176Z" fill="#1A1A1A"/>
<path d="M40.6674 29.2014C41.0622 29.7938 41.9327 29.7938 42.3276 29.2014L47.8308 20.9466C48.2728 20.2836 47.7975 19.3956 47.0007 19.3956H35.9943C35.1974 19.3956 34.7221 20.2836 35.1642 20.9466L40.6674 29.2014Z" fill="#1A1A1A"/>
<path d="M5.67244 18.7992C6.06733 18.2069 6.93775 18.2069 7.33265 18.7992L12.8359 27.054C13.2779 27.717 12.8026 28.6051 12.0057 28.6051H0.999339C0.202511 28.6051 -0.272766 27.717 0.169235 27.054L5.67244 18.7992Z" fill="#1A1A1A"/>
</svg>
