<svg width="48" height="48" viewBox="0 0 48 48" fill="none" xmlns="http://www.w3.org/2000/svg">
<path fill-rule="evenodd" clip-rule="evenodd" d="M27.6139 5.53062C26.2223 8.13701 24.462 10.5694 22.4104 12.6971L14.5905 20.8065C14.3109 21.0965 14.1547 21.4835 14.1547 21.8863V36.2767C14.1547 36.4464 14.2194 36.6097 14.3356 36.7333L17.5092 40.1095C18.6432 41.3158 20.2253 42 21.881 42H30.8411C32.4324 42 33.9585 41.3679 35.0838 40.2426L38.9498 36.3766C40.5751 34.7513 41.4882 32.5469 41.4882 30.2483V23.118C41.4882 22.7498 41.1897 22.4513 40.8215 22.4513H29.2071C26.4785 22.4513 24.6686 19.657 25.7349 17.1844L27.4658 11.7399L27.5272 11.6125C28.4564 9.68418 28.4762 7.45813 27.6139 5.53062ZM30.644 2.70569C32.5623 5.9028 32.7656 9.84082 31.1942 13.2148L29.5295 18.4513H40.8215C43.3988 18.4513 45.4882 20.5406 45.4882 23.118V30.2483C45.4882 33.6077 44.1537 36.8296 41.7782 39.2051L37.9122 43.0711C36.0368 44.9464 33.4933 46 30.8411 46H21.881C19.1215 46 16.4847 44.8597 14.5947 42.8491L11.4211 39.473C10.6076 38.6075 10.1547 37.4645 10.1547 36.2767V21.8863C10.1547 20.4479 10.7126 19.0655 11.7111 18.03L19.531 9.92052C21.4984 7.88024 23.1661 5.51036 24.4352 2.96938C25.6546 0.52819 29.1758 0.258695 30.644 2.70569ZM6.57812 19.3263V44.6597H2.57812V19.3263H6.57812Z" fill="#1A1A1A"/>
</svg>
