<svg width="48" height="48" viewBox="0 0 48 48" fill="none" xmlns="http://www.w3.org/2000/svg">
<path fill-rule="evenodd" clip-rule="evenodd" d="M24.5434 1.25781H23.9452L8.4658 5.90164C6.105 6.60988 4.48828 8.7828 4.48828 11.2475V24.8456C4.48828 28.5855 5.87263 32.1931 8.3745 34.9729C11.58 38.5346 15.3667 41.5264 19.5734 43.8209L23.7247 46.0853H24.7639L28.9151 43.8209C33.1218 41.5264 36.9085 38.5346 40.114 34.9729C42.6159 32.1931 44.0003 28.5855 44.0003 24.8456V11.2475C44.0003 8.7828 42.3835 6.60987 40.0227 5.90164L24.5434 1.25781ZM9.63681 9.805L24.2443 5.42275L38.8517 9.805C39.4888 9.99611 39.925 10.5825 39.925 11.2475V24.8456C39.925 27.5788 38.9133 30.2152 37.0849 32.2467C34.1879 35.4657 30.7655 38.1696 26.9637 40.2433L24.2443 41.7267L21.5248 40.2433C17.723 38.1696 14.3006 35.4657 11.4036 32.2467C9.5752 30.2152 8.56351 27.5788 8.56351 24.8456V11.2475C8.56351 10.5825 8.99977 9.99611 9.63681 9.805ZM28.9539 17.17C28.6307 20.2927 26.1185 22.5912 23.3426 22.304C20.5667 22.0167 18.5783 19.2525 18.9014 16.1298C19.2246 13.0072 21.7368 10.7087 24.5127 10.9959C27.2886 11.2832 29.277 14.0474 28.9539 17.17ZM14.4473 28.8408C14.4473 28.3299 14.7362 27.8629 15.1934 27.6349L20.961 24.7587C23.0436 23.7202 25.4931 23.7202 27.5757 24.7587L33.3432 27.6349C33.8004 27.8629 34.0894 28.3299 34.0894 28.8408V30.6242C34.0894 31.3684 33.4861 31.9717 32.7419 31.9717H15.7947C15.0506 31.9717 14.4473 31.3684 14.4473 30.6242V28.8408Z" fill="#1A1A1A"/>
</svg>
