<svg width="32" height="32" viewBox="0 0 32 32" fill="none" xmlns="http://www.w3.org/2000/svg">
<g filter="url(#filter0_d_557_620)">
<path fill-rule="evenodd" clip-rule="evenodd" d="M16.0003 8.60215C13.6244 8.60215 11.5103 9.72111 10.1552 11.4648L8.5975 10.2543C10.3103 8.05039 12.9896 6.62939 16.0003 6.62939C21.1756 6.62939 25.3709 10.8247 25.3709 16H23.3982C23.3982 11.9143 20.086 8.60215 16.0003 8.60215ZM8.60251 16C8.60251 20.0857 11.9146 23.3978 16.0003 23.3978C18.4588 23.3978 20.6372 22.1996 21.9841 20.351L23.5785 21.5127C21.8764 23.849 19.116 25.3705 16.0003 25.3705C10.8251 25.3705 6.62976 21.1752 6.62976 16H8.60251Z" fill="white"/>
<path d="M23.9864 18.4922C24.1757 18.776 24.5927 18.776 24.782 18.4922L27.4189 14.5367C27.6307 14.219 27.403 13.7935 27.0212 13.7935H21.7472C21.3654 13.7935 21.1377 14.2191 21.3495 14.5367L23.9864 18.4922Z" fill="white"/>
<path d="M7.21804 13.5078C7.40726 13.2239 7.82434 13.2239 8.01356 13.5078L10.6505 17.4632C10.8623 17.7809 10.6346 18.2064 10.2528 18.2064H4.97885C4.59704 18.2064 4.3693 17.7809 4.58109 17.4632L7.21804 13.5078Z" fill="white"/>
</g>
<defs>
<filter id="filter0_d_557_620" x="2" y="2" width="28" height="28" filterUnits="userSpaceOnUse" color-interpolation-filters="sRGB">
<feFlood flood-opacity="0" result="BackgroundImageFix"/>
<feColorMatrix in="SourceAlpha" type="matrix" values="0 0 0 0 0 0 0 0 0 0 0 0 0 0 0 0 0 0 127 0" result="hardAlpha"/>
<feOffset/>
<feGaussianBlur stdDeviation="1"/>
<feComposite in2="hardAlpha" operator="out"/>
<feColorMatrix type="matrix" values="0 0 0 0 0 0 0 0 0 0 0 0 0 0 0 0 0 0 0.58 0"/>
<feBlend mode="normal" in2="BackgroundImageFix" result="effect1_dropShadow_557_620"/>
<feBlend mode="normal" in="SourceGraphic" in2="effect1_dropShadow_557_620" result="shape"/>
</filter>
</defs>
</svg>
