<svg width="48" height="48" viewBox="0 0 48 48" fill="none" xmlns="http://www.w3.org/2000/svg">
<path fill-rule="evenodd" clip-rule="evenodd" d="M24 33C28.9706 33 33 28.9706 33 24C33 19.0294 28.9706 15 24 15C19.0294 15 15 19.0294 15 24C15 28.9706 19.0294 33 24 33ZM24 29C26.7614 29 29 26.7614 29 24C29 21.2386 26.7614 19 24 19C21.2386 19 19 21.2386 19 24C19 26.7614 21.2386 29 24 29Z" fill="#1A1A1A"/>
<path fill-rule="evenodd" clip-rule="evenodd" d="M31.1847 7.34176L29.8334 1.93689H18.1683L16.8171 7.34176C16.7584 7.57672 16.4612 8.11156 15.4779 8.65872C15.3077 8.75345 15.1392 8.85091 14.9726 8.95104C14.0138 9.52723 13.404 9.51712 13.1716 9.45064L7.81108 7.91721L1.97852 18.0195L5.98611 21.8945C6.1611 22.0637 6.47464 22.5877 6.45604 23.7028C6.45439 23.8017 6.45356 23.9008 6.45356 24C6.45356 24.0992 6.45439 24.1983 6.45604 24.2972C6.47464 25.4123 6.1611 25.9363 5.98611 26.1055L1.97852 29.9805L7.81108 40.0828L13.1716 38.5493C13.404 38.4829 14.0138 38.4727 14.9726 39.0489C15.1392 39.1491 15.3077 39.2465 15.4779 39.3412C16.4612 39.8884 16.7584 40.4233 16.8171 40.6582L18.1683 46.0631H29.8334L31.1847 40.6582C31.2434 40.4233 31.5406 39.8884 32.5238 39.3412C32.6942 39.2464 32.8629 39.1489 33.0297 39.0486C33.9885 38.4724 34.5984 38.4825 34.8308 38.549L40.1926 40.0827L46.0251 29.9804L42.0157 26.1037C41.8407 25.9345 41.5272 25.4106 41.5457 24.2957C41.5474 24.1973 41.5482 24.0987 41.5482 24C41.5482 23.9011 41.5474 23.8023 41.5457 23.7037C41.5272 22.5887 41.8407 22.0648 42.0157 21.8956L46.0245 18.0195L40.1919 7.9172L34.8306 9.45086C34.5981 9.51735 33.9883 9.52746 33.0295 8.95123C32.8627 8.85103 32.6942 8.75351 32.5238 8.65872C31.5406 8.11156 31.2434 7.57672 31.1847 7.34176ZM12.0714 13.2964L9.71363 12.6219L7.00417 17.3148L8.76656 19.0189C10.0239 20.2347 10.4847 22.0207 10.4555 23.7695C10.4542 23.8462 10.4536 23.923 10.4536 24C10.4536 24.077 10.4542 24.1538 10.4555 24.2305C10.4847 25.9792 10.0239 27.7653 8.76656 28.9811L7.00417 30.6851L9.71363 35.3781L12.0715 34.7036C13.7545 34.2221 15.5324 34.7187 17.0329 35.6204C17.1616 35.6977 17.2916 35.7729 17.423 35.846C18.9531 36.6975 20.2729 37.9892 20.6977 39.6881L21.2914 42.0631H26.7103L27.3041 39.6881C27.7288 37.9892 29.0486 36.6975 30.5788 35.846C30.7103 35.7728 30.8405 35.6975 30.9692 35.6201C32.4698 34.7183 34.2477 34.2217 35.9309 34.7032L38.29 35.3781L40.9995 30.6851L39.2353 28.9793C37.9781 27.7637 37.5173 25.9779 37.5463 24.2293C37.5476 24.153 37.5482 24.0766 37.5482 24C37.5482 23.9233 37.5476 23.8467 37.5463 23.7702C37.5172 22.0216 37.978 20.2357 39.2352 19.02L40.9988 17.3148L38.2893 12.6219L35.9307 13.2966C34.2475 13.7781 32.4696 13.2815 30.9691 12.3798C30.8404 12.3024 30.7103 12.2271 30.5788 12.154C29.0486 11.3025 27.7288 10.0108 27.3041 8.3119L26.7103 5.93689H21.2914L20.6977 8.31191C20.2729 10.0108 18.9531 11.3025 17.423 12.154C17.2916 12.2271 17.1616 12.3023 17.0329 12.3796C15.5324 13.2813 13.7545 13.7778 12.0714 13.2964Z" fill="#1A1A1A"/>
</svg>
