<svg width="34" height="32" viewBox="0 0 34 32" fill="none" xmlns="http://www.w3.org/2000/svg">
<path d="M6.61617 6.12792C9.5672 6.47534 10.3347 9.36527 10.407 10.6229C10.2264 10.689 9.51506 10.8212 8.11438 10.8212C3.15315 11.2937 2.91575 7.42758 3.02413 6.12792C3.2949 6.12792 3.66515 5.7805 6.61617 6.12792Z" fill="#F8AB27"/>
<path d="M6.6233 15.7973C9.54364 15.8101 10.3578 12.4561 10.3998 10.7776C10.2569 10.8051 9.27595 10.9127 6.49562 11.1225C3.71529 11.3324 3.00674 14.3265 3 15.7973C3.33339 15.792 4.52479 15.7845 6.6233 15.7973Z" fill="#F8AB27"/>
<path d="M16.1729 2.0906C21.1879 1.36925 22.5006 5.1502 22.2192 6.53021C22.1555 7.59231 20.9934 8.51249 19.4409 7.81003C16.5128 6.48518 16.2891 4.29272 16.1729 2.0906Z" fill="#FBA830"/>
<path d="M16.4019 18.3601C16.7178 16.2521 17.312 15.5046 19.0437 14.4005C20.7754 13.2965 22.0532 13.7549 22.2546 14.9818C21.7968 20.819 17.4222 20.0477 15.8394 19.8646C15.9702 19.6422 16.2318 19.4943 16.4019 18.3601Z" fill="#FBA830"/>
<path d="M20.7604 5.98938C14.2208 5.98938 9.31602 9.25921 8.22607 10.6606C9.31602 12.529 15.5287 15.7989 20.7604 15.7989C25.9922 15.7989 30.5699 12.529 32.2048 11.1277C31.1149 9.72633 27.3001 5.98938 20.7604 5.98938Z" fill="#B0F6FE"/>
<path d="M32.2052 11.1185C31.4242 10.1144 29.2444 7.91124 25.6655 6.7428C25.1206 8.07444 24.3576 11.5699 25.6655 14.8986C28.7046 13.8268 31.1124 12.0552 32.2052 11.1185Z" fill="#FBA830"/>
<circle cx="27.2251" cy="9.84287" r="0.730444" fill="black"/>
<path d="M4.35226 21.685C6.27203 21.9111 6.77135 23.7911 6.81838 24.6092C6.70089 24.6522 6.23811 24.7382 5.32691 24.7382C2.09941 25.0456 1.94497 22.5305 2.01548 21.685C2.19162 21.685 2.43248 21.459 4.35226 21.685Z" fill="#F8AB27"/>
<path d="M4.35712 27.9775C6.25693 27.9858 6.78656 25.8039 6.81389 24.7119C6.72092 24.7298 6.08279 24.7998 4.27406 24.9363C2.46533 25.0728 2.00438 27.0206 2 27.9775C2.21688 27.974 2.99194 27.9691 4.35712 27.9775Z" fill="#F8AB27"/>
<path d="M10.5693 19.0589C13.8318 18.5897 14.6858 21.0493 14.5027 21.9471C14.4613 22.638 13.7053 23.2367 12.6954 22.7797C10.7905 21.9178 10.6449 20.4915 10.5693 19.0589Z" fill="#FBA830"/>
<path d="M10.719 29.6427C10.9245 28.2714 11.311 27.785 12.4376 27.0668C13.5642 26.3486 14.3954 26.6468 14.5264 27.445C14.2286 31.2423 11.3828 30.7406 10.353 30.6214C10.4381 30.4768 10.6084 30.3806 10.719 29.6427Z" fill="#FBA830"/>
<path d="M13.555 21.5951C9.3007 21.5951 6.10994 23.7223 5.40088 24.6339C6.10994 25.8494 10.1516 27.9766 13.555 27.9766C16.9585 27.9766 19.9366 25.8494 21.0001 24.9378C20.2911 24.0261 17.8094 21.5951 13.555 21.5951Z" fill="#B0F6FE"/>
<path d="M21 24.9323C20.492 24.2791 19.0739 22.8458 16.7457 22.0857C16.3912 22.952 15.8948 25.2259 16.7457 27.3914C18.7227 26.6942 20.2891 25.5417 21 24.9323Z" fill="#FBA830"/>
<circle cx="17.7589" cy="24.1017" r="0.475186" fill="black"/>
<path d="M24.0487 20.6053C25.1963 20.7404 25.4947 21.8642 25.5228 22.3532C25.4526 22.3789 25.176 22.4303 24.6313 22.4303C22.7021 22.6141 22.6098 21.1107 22.6519 20.6053C22.7572 20.6053 22.9012 20.4702 24.0487 20.6053Z" fill="#F8AB27"/>
<path d="M24.052 24.3667C25.1876 24.3717 25.5042 23.0675 25.5205 22.4148C25.4649 22.4255 25.0835 22.4673 24.0024 22.5489C22.9212 22.6305 22.6457 23.7948 22.6431 24.3667C22.7727 24.3647 23.236 24.3618 24.052 24.3667Z" fill="#F8AB27"/>
<path d="M27.7651 19.0352C29.7153 18.7547 30.2257 20.225 30.1163 20.7616C30.0915 21.1746 29.6397 21.5324 29.0359 21.2593C27.8973 20.7441 27.8103 19.8915 27.7651 19.0352Z" fill="#FBA830"/>
<path d="M27.8545 25.3624C27.9774 24.5427 28.2084 24.252 28.8818 23.8227C29.5552 23.3934 30.052 23.5717 30.1304 24.0488C29.9523 26.3186 28.2513 26.0187 27.6357 25.9475C27.6866 25.861 27.7884 25.8035 27.8545 25.3624Z" fill="#FBA830"/>
<path d="M29.5499 20.5507C27.0069 20.5507 25.0996 21.8222 24.6758 22.3671C25.0996 23.0937 27.5155 24.3651 29.5499 24.3651C31.5842 24.3651 33.3643 23.0937 34.0001 22.5487C33.5763 22.0038 32.0928 20.5507 29.5499 20.5507Z" fill="#B0F6FE"/>
<path d="M34.0001 22.5443C33.6964 22.1538 32.8487 21.2971 31.4571 20.8428C31.2452 21.3606 30.9485 22.7198 31.4571 24.0142C32.6388 23.5974 33.5751 22.9086 34.0001 22.5443Z" fill="#FBA830"/>
<circle cx="32.0624" cy="22.0493" r="0.284038" fill="black"/>
</svg>
