<svg width="48" height="48" viewBox="0 0 48 48" fill="none" xmlns="http://www.w3.org/2000/svg">
<path fill-rule="evenodd" clip-rule="evenodd" d="M24 2C11.8497 2 2 11.8497 2 24C2 36.1503 11.8497 46 24 46C36.1503 46 46 36.1503 46 24C46 11.8497 36.1503 2 24 2ZM26.2123 9.54659C26.8489 8.74607 28.1252 9.39523 27.8531 10.3811L25.0367 20.5873L33.0677 20.6631C33.8565 20.6705 34.2854 21.588 33.7853 22.198L20.3669 38.5647C19.7048 39.3724 18.4166 38.6585 18.7504 37.6689L22.6585 26.0815L14.9501 26.1721C14.1587 26.1814 13.7112 25.2676 14.2039 24.6481L26.2123 9.54659Z" fill="#FFD500"/>
</svg>
