<svg width="19" height="16" viewBox="0 0 19 16" fill="none" xmlns="http://www.w3.org/2000/svg">
<path d="M10.7148 0C11.3058 6.78203e-05 11.874 0.22893 12.2998 0.638672L13.2988 1.59961H14.4756C16.5793 1.59975 18.285 3.30549 18.2852 5.40918V12.1904C18.2852 14.2943 16.5794 15.9999 14.4756 16H3.80957C1.70562 16 0 14.2944 0 12.1904V5.40918C0.00020139 3.30541 1.70575 1.59961 3.80957 1.59961H4.98633L5.98535 0.638672C6.41117 0.228947 6.97937 2.30019e-05 7.57031 0H10.7148ZM9.1416 4.19043C6.82755 4.19062 4.95137 6.06681 4.95117 8.38086C4.95117 10.6951 6.82742 12.5711 9.1416 12.5713C11.4558 12.5711 13.332 10.6951 13.332 8.38086C13.3318 6.06678 11.4557 4.19057 9.1416 4.19043ZM9.14258 6.0957C10.4049 6.0957 11.4287 7.11947 11.4287 8.38184C11.4285 9.644 10.4048 10.667 9.14258 10.667C7.88037 10.667 6.85669 9.64399 6.85645 8.38184C6.85645 7.11947 7.88022 6.09571 9.14258 6.0957Z" fill="white"/>
</svg>
