<svg width="48" height="48" viewBox="0 0 48 48" fill="none" xmlns="http://www.w3.org/2000/svg">
<path fill-rule="evenodd" clip-rule="evenodd" d="M21 11.8326C21 11.0909 20.221 10.6073 19.5563 10.9364L7.55629 16.8778C7.21558 17.0465 7 17.3938 7 17.774V29.2255C7 29.6057 7.21559 29.953 7.5563 30.1217L19.5563 36.0629C20.221 36.392 21 35.9084 21 35.1668V11.8326ZM17.7814 7.3517C21.1048 5.70626 25 8.12418 25 11.8326V35.1668C25 38.8751 21.1048 41.293 17.7815 39.6476L5.7815 33.7064C4.07794 32.8629 3 31.1264 3 29.2255V17.774C3 15.8731 4.07791 14.1366 5.78145 13.2931L17.7814 7.3517ZM30.5856 28.3389C33.2583 25.6663 33.2583 21.3331 30.5856 18.6605L33.4141 15.8321C37.6488 20.0668 37.6488 26.9326 33.4141 31.1673L30.5856 28.3389ZM36.5856 11.9105C42.9862 18.3111 42.9862 28.6885 36.5856 35.089L39.4141 37.9175C47.3767 29.9548 47.3767 17.0448 39.4141 9.08208L36.5856 11.9105Z" fill="#1A1A1A"/>
</svg>
