<svg width="48" height="48" viewBox="0 0 48 48" fill="none" xmlns="http://www.w3.org/2000/svg">
<path d="M24.5196 26.5357L31.7205 32.5364L34.2812 29.4636L27.0803 23.4628C26.3964 22.8928 26.0009 22.0485 26.0009 21.1581V12H22.0009V21.1581C22.0009 23.2356 22.9236 25.2057 24.5196 26.5357Z" fill="#1A1A1A"/>
<path fill-rule="evenodd" clip-rule="evenodd" d="M2 24C2 11.8497 11.8497 2 24 2C36.1503 2 46 11.8497 46 24C46 36.1503 36.1503 46 24 46C11.8497 46 2 36.1503 2 24ZM42 24C42 33.9411 33.9411 42 24 42C14.0589 42 6 33.9411 6 24C6 14.0589 14.0589 6 24 6C33.9411 6 42 14.0589 42 24Z" fill="#1A1A1A"/>
</svg>
