<svg width="375" height="292" viewBox="0 0 375 292" fill="none" xmlns="http://www.w3.org/2000/svg">
<g clip-path="url(#clip0_8362_27487)">
<g opacity="0.4" filter="url(#filter0_d_8362_27487)">
<ellipse cx="81.434" cy="46.298" rx="81.434" ry="46.298" transform="matrix(-0.965926 -0.258819 -0.258819 0.965926 135.188 31.2236)" fill="url(#paint0_linear_8362_27487)"/>
<path d="M-33.9506 33.8345C-37.237 46.0994 -31.4752 59.579 -19.4295 71.4658C-7.38783 83.3487 10.9082 93.6107 32.6064 99.4247C54.3045 105.239 75.2804 105.5 91.6502 101.23C108.025 96.9581 119.755 88.1653 123.041 75.9004C126.328 63.6354 120.566 50.1558 108.52 38.269C96.4787 26.3861 78.1827 16.1241 56.4845 10.3101C34.7864 4.49615 13.8106 4.23527 -2.55924 8.5053C-18.9345 12.7768 -30.6642 21.5695 -33.9506 33.8345Z" stroke="white" stroke-opacity="0.4" stroke-width="0.337901"/>
</g>
<g filter="url(#filter1_d_8362_27487)">
<ellipse cx="278.718" cy="201.815" rx="247.509" ry="140.717" transform="rotate(15 278.718 201.815)" fill="url(#paint1_linear_8362_27487)" shape-rendering="crispEdges"/>
<path d="M517.297 265.742C507.309 303.02 471.658 329.744 421.887 342.727C372.133 355.705 308.379 354.912 242.43 337.241C176.481 319.57 120.873 288.38 84.2734 252.264C47.6619 216.135 30.1496 175.165 40.1382 137.888C50.1267 100.61 85.7776 73.8851 135.548 60.9025C185.303 47.9242 249.056 48.7172 315.005 66.3881C380.954 84.0591 436.563 115.249 473.162 151.366C509.773 187.494 527.286 228.464 517.297 265.742Z" stroke="white" stroke-opacity="0.6" stroke-width="1.02701" shape-rendering="crispEdges"/>
</g>
</g>
<defs>
<filter id="filter0_d_8362_27487" x="-35.0312" y="5.41699" width="159.156" height="100.928" filterUnits="userSpaceOnUse" color-interpolation-filters="sRGB">
<feFlood flood-opacity="0" result="BackgroundImageFix"/>
<feColorMatrix in="SourceAlpha" type="matrix" values="0 0 0 0 0 0 0 0 0 0 0 0 0 0 0 0 0 0 127 0" result="hardAlpha"/>
<feOffset dy="2.0274"/>
<feComposite in2="hardAlpha" operator="out"/>
<feColorMatrix type="matrix" values="0 0 0 0 1 0 0 0 0 1 0 0 0 0 1 0 0 0 1 0"/>
<feBlend mode="normal" in2="BackgroundImageFix" result="effect1_dropShadow_8362_27487"/>
<feBlend mode="normal" in="SourceGraphic" in2="effect1_dropShadow_8362_27487" result="shape"/>
</filter>
<filter id="filter1_d_8362_27487" x="36.8516" y="51.5176" width="483.734" height="306.757" filterUnits="userSpaceOnUse" color-interpolation-filters="sRGB">
<feFlood flood-opacity="0" result="BackgroundImageFix"/>
<feColorMatrix in="SourceAlpha" type="matrix" values="0 0 0 0 0 0 0 0 0 0 0 0 0 0 0 0 0 0 127 0" result="hardAlpha"/>
<feOffset dy="6.16205"/>
<feComposite in2="hardAlpha" operator="out"/>
<feColorMatrix type="matrix" values="0 0 0 0 1 0 0 0 0 1 0 0 0 0 1 0 0 0 0.6 0"/>
<feBlend mode="normal" in2="BackgroundImageFix" result="effect1_dropShadow_8362_27487"/>
<feBlend mode="normal" in="SourceGraphic" in2="effect1_dropShadow_8362_27487" result="shape"/>
</filter>
<linearGradient id="paint0_linear_8362_27487" x1="81.434" y1="0" x2="81.434" y2="92.5961" gradientUnits="userSpaceOnUse">
<stop stop-color="white"/>
<stop offset="1" stop-color="#EBEBEB"/>
</linearGradient>
<linearGradient id="paint1_linear_8362_27487" x1="278.718" y1="61.0973" x2="278.718" y2="342.532" gradientUnits="userSpaceOnUse">
<stop stop-color="white" stop-opacity="0.38"/>
<stop offset="1" stop-color="#EBEBEB" stop-opacity="0.79"/>
</linearGradient>
<clipPath id="clip0_8362_27487">
<rect width="375" height="292" fill="white"/>
</clipPath>
</defs>
</svg>
