<svg width="28" height="29" viewBox="0 0 28 29" fill="none" xmlns="http://www.w3.org/2000/svg">
<path fill-rule="evenodd" clip-rule="evenodd" d="M19.9714 28.5001C24.1533 28.5001 27.5434 25.01 27.5434 20.7048C27.5434 18.5315 26.0962 15.607 23.2017 11.9315L22.6914 11.2941C22.604 11.1866 22.5154 11.0785 22.4256 10.9698L21.8727 10.3103C21.7782 10.1991 21.6825 10.0874 21.5856 9.97501L21.2914 9.63605C20.6306 8.87958 19.5039 8.82221 18.7748 9.50792C18.7317 9.54851 18.6905 9.59127 18.6513 9.63605C18.4529 9.86325 18.2591 10.088 18.0701 10.3103L17.5172 10.9698C17.4274 11.0785 17.3388 11.1866 17.2514 11.2941L16.741 11.9315C13.8466 15.607 12.3994 18.5315 12.3994 20.7048C12.3994 25.01 15.7895 28.5001 19.9714 28.5001Z" fill="#0BA7FF"/>
<path fill-rule="evenodd" clip-rule="evenodd" d="M5.3677 18.7644C8.05606 18.7644 10.2354 16.4376 10.2354 13.5675C10.2354 12.1186 9.30505 10.169 7.44435 7.71861L7.11626 7.29365C7.06006 7.222 7.0031 7.14995 6.94538 7.07749L6.58995 6.63781C6.5292 6.56371 6.46768 6.4892 6.4054 6.41429L6.21629 6.18832C5.79147 5.684 5.06715 5.64576 4.59849 6.10289C4.57074 6.12995 4.54425 6.15846 4.5191 6.18832C4.39151 6.33978 4.26696 6.48961 4.14544 6.63781L3.79001 7.07749C3.73229 7.14995 3.67533 7.22201 3.61913 7.29365L3.29104 7.71862C1.43035 10.169 0.5 12.1186 0.5 13.5675C0.5 16.4376 2.67934 18.7644 5.3677 18.7644Z" fill="#0BA7FF"/>
<path fill-rule="evenodd" clip-rule="evenodd" d="M14.0209 9.02887C16.1118 9.02887 17.8068 7.47772 17.8068 5.56428C17.8068 4.59835 17.0832 3.2986 15.636 1.66503L15.3808 1.38172C15.3371 1.33396 15.2928 1.28592 15.2479 1.23761L14.9715 0.944491C14.9242 0.895093 14.8764 0.845422 14.828 0.795478L14.6809 0.644832C14.3505 0.308621 13.7871 0.283124 13.4226 0.587882C13.401 0.605923 13.3804 0.624929 13.3608 0.644832C13.2616 0.745809 13.1647 0.845696 13.0702 0.944493L12.7938 1.23761C12.7489 1.28592 12.7046 1.33396 12.6609 1.38172L12.4057 1.66503C10.9585 3.2986 10.2349 4.59835 10.2349 5.56428C10.2349 7.47772 11.9299 9.02887 14.0209 9.02887Z" fill="#0BA7FF"/>
</svg>
