<svg width="48" height="48" viewBox="0 0 48 48" fill="none" xmlns="http://www.w3.org/2000/svg">
<path fill-rule="evenodd" clip-rule="evenodd" d="M20.5 11.8332C20.5 11.4624 20.1105 11.2206 19.7781 11.3851L7.77814 17.3265C7.60779 17.4109 7.5 17.5845 7.5 17.7746V29.2261C7.5 29.4162 7.60779 29.5899 7.77815 29.6742L19.7781 35.6155C20.1105 35.78 20.5 35.5382 20.5 35.1674V11.8332ZM17.5596 6.90425C21.2153 5.09427 25.5 7.75399 25.5 11.8332V35.1674C25.5 39.2466 21.2153 41.9063 17.5597 40.0964L5.55965 34.1551C3.68573 33.2273 2.5 31.3172 2.5 29.2261V17.7746C2.5 15.6836 3.6857 13.7735 5.5596 12.8457L17.5596 6.90425ZM30.232 27.986C32.7094 25.5086 32.7094 21.4921 30.232 19.0147L33.7676 15.4792C38.1976 19.9091 38.1976 27.0916 33.7676 31.5215L30.232 27.986ZM36.232 12.2647C42.4374 18.47 42.4374 28.5308 36.232 34.7361L39.7676 38.2716C47.9255 30.1137 47.9255 16.8871 39.7676 8.72916L36.232 12.2647Z" fill="#1A1A1A"/>
</svg>
