<svg width="22" height="22" viewBox="0 0 22 22" fill="none" xmlns="http://www.w3.org/2000/svg">
<path d="M10.4736 16.2627C10.4736 18.8786 8.35318 20.9998 5.7373 21C3.12122 21 1 18.8788 1 16.2627C1.00025 13.6468 3.12137 11.5264 5.7373 11.5264H10.4736V16.2627ZM16.2627 11.5264C18.8786 11.5264 20.9998 13.6468 21 16.2627C21 18.8788 18.8788 21 16.2627 21C13.6468 20.9998 11.5264 18.8786 11.5264 16.2627V11.5264H16.2627ZM5.7373 1C8.35318 1.00025 10.4736 3.12137 10.4736 5.7373V10.4736H5.7373C3.12137 10.4736 1.00025 8.35318 1 5.7373C1 3.12122 3.12122 1 5.7373 1ZM16.2627 1C18.8788 1 21 3.12122 21 5.7373C20.9998 8.35318 18.8786 10.4736 16.2627 10.4736H11.5264V5.7373C11.5264 3.12137 13.6468 1.00025 16.2627 1Z" fill="#1E90FF"/>
</svg>
