<svg width="32" height="32" viewBox="0 0 32 32" fill="none" xmlns="http://www.w3.org/2000/svg">
<rect width="32" height="32" rx="16" fill="black" fill-opacity="0.3"/>
<rect x="0.25" y="0.25" width="31.5" height="31.5" rx="15.75" stroke="white" stroke-opacity="0.7" stroke-width="0.5"/>
<path d="M15.1621 8.40588L15.2539 8.41077C15.4658 8.43194 15.6655 8.52544 15.8174 8.67737C15.991 8.85109 16.0879 9.08706 16.0879 9.33264C16.0878 9.57824 15.991 9.81423 15.8174 9.98792C15.6437 10.1616 15.4077 10.2583 15.1621 10.2584H10.2588V21.7301H21.7305V16.8219L21.7363 16.7242V16.7184C21.7642 16.4841 21.8807 16.2693 22.0615 16.1178C22.2426 15.9662 22.4752 15.8891 22.7109 15.903C22.9466 15.9168 23.168 16.0204 23.3301 16.192C23.4921 16.3637 23.5827 16.5907 23.583 16.8268V21.8239C23.5829 22.2903 23.3972 22.7372 23.0674 23.067C22.7375 23.3969 22.2907 23.5825 21.8242 23.5826H10.165C9.69862 23.5825 9.25169 23.3968 8.92188 23.067C8.59207 22.7372 8.40634 22.2903 8.40625 21.8239V10.1647C8.40637 9.69826 8.59206 9.25132 8.92188 8.92151C9.25169 8.59169 9.69862 8.406 10.165 8.40588H15.1621ZM22.667 8.40686C22.8436 8.40686 23.0152 8.45759 23.1621 8.55042V8.51721L23.3223 8.67737C23.496 8.85111 23.5938 9.08697 23.5938 9.33264C23.5937 9.57816 23.4958 9.81327 23.3223 9.98694L15.668 17.6432L15.667 17.6442C15.4923 17.8129 15.2576 17.906 15.0146 17.9039C14.7719 17.9017 14.5398 17.8041 14.3682 17.6324C14.1965 17.4608 14.0989 17.2287 14.0967 16.986C14.0946 16.743 14.1877 16.5084 14.3564 16.3336L14.3574 16.3326L22.0127 8.67834C22.1863 8.50479 22.4215 8.40698 22.667 8.40686Z" fill="white" stroke="white" stroke-width="0.1875"/>
</svg>
