<svg width="48" height="48" viewBox="0 0 48 48" fill="none" xmlns="http://www.w3.org/2000/svg">
<path fill-rule="evenodd" clip-rule="evenodd" d="M35.6599 42.6597L40 46.9999L43.5355 43.4644L3.53553 3.46436L0 6.99989L5.34064 12.3405C3.22398 15.7209 2.00038 19.7175 2.00038 24C2.00038 36.1503 11.8501 46 24.0004 46C28.2828 46 32.2795 44.7764 35.6599 42.6597ZM31.9167 38.9166L24.5564 31.5563L21.0494 35.8338C20.5118 36.4895 19.4659 35.9099 19.7369 35.1064L21.8478 28.8477L18.7474 25.7473L16.6514 25.7719C16.0088 25.7795 15.6455 25.0376 16.0455 24.5346L16.7051 23.705L9.08378 16.0837C7.82813 18.4447 7.11666 21.1393 7.11666 24C7.11666 33.3246 14.6758 40.8837 24.0004 40.8837C26.8611 40.8837 29.5556 40.1722 31.9167 38.9166ZM24.0004 2C19.4772 2 15.2728 3.36502 11.7768 5.7056L15.4875 9.41633C17.9869 7.95424 20.8958 7.11628 24.0004 7.11628C33.325 7.11628 40.8841 14.6754 40.8841 24C40.8841 27.1046 40.0461 30.0135 38.584 32.5129L42.2948 36.2236C44.6354 32.7275 46.0004 28.5232 46.0004 24C46.0004 11.8497 36.1506 2 24.0004 2ZM31.9441 22.5453L30.445 24.3738L27.3322 21.261L31.3615 21.299C32.0019 21.3051 32.3502 22.05 31.9441 22.5453ZM22.495 16.4238L25.3746 19.3035L27.1276 12.9509C27.3485 12.1504 26.3123 11.6234 25.7954 12.2733L22.495 16.4238Z" fill="#1A1A1A"/>
</svg>
