<svg width="30" height="30" viewBox="0 0 30 30" fill="none" xmlns="http://www.w3.org/2000/svg">
<path d="M6.58496 6.82436C7.46412 5.54957 10.3302 3 14.7612 3C19.1922 3 22.322 5.54957 23.333 6.82436M25.8386 13.0225C25.9265 14.517 25.8386 17.5062 23.9924 20.1437C22.4428 22.3573 20.2999 23.7043 18.5855 24.2318" stroke="#3B3B3B" stroke-width="2" stroke-linecap="round"/>
<path d="M11.9917 24.6272C9.1344 23.836 3.52534 20.3545 3.94734 12.7585" stroke="#3B3B3B" stroke-width="2" stroke-linecap="round"/>
<path d="M4.46144 8.25477C4.60951 8.07794 4.89348 8.1277 4.97259 8.34435L6.64418 12.9222C6.72329 13.1388 6.53821 13.3599 6.31103 13.32L1.51073 12.4788C1.28355 12.439 1.18467 12.1681 1.33274 11.9913L4.46144 8.25477Z" fill="#3B3B3B"/>
<path d="M25.5864 9.60663C25.6036 9.86969 25.3296 10.0528 25.0932 9.93616L20.815 7.82623C20.5785 7.70962 20.557 7.38079 20.7762 7.23433L24.7425 4.58424C24.9617 4.43778 25.2573 4.58354 25.2745 4.84661L25.5864 9.60663Z" fill="#3B3B3B"/>
<path d="M15.0656 25.269C14.8156 25.1852 14.7502 24.8621 14.9478 24.6875L18.5239 21.5287C18.7215 21.3542 19.034 21.459 19.0864 21.7175L20.0339 26.3938C20.0863 26.6523 19.8392 26.8705 19.5892 26.7866L15.0656 25.269Z" fill="#3B3B3B"/>
</svg>
