<svg width="37" height="36" viewBox="0 0 37 36" fill="none" xmlns="http://www.w3.org/2000/svg">
<mask id="mask0_149_1855" style="mask-type:alpha" maskUnits="userSpaceOnUse" x="3" y="3" width="32" height="31">
<rect x="3.5" y="3" width="31" height="31" fill="#1FCC98"/>
</mask>
<g mask="url(#mask0_149_1855)">
<path d="M8.69295 29.5004L5.86789 23.2853C5.72632 22.9738 5.85626 22.6059 6.16367 22.4557C9.11792 21.0128 12.3273 19.7338 14.6618 19.7338C17.1418 19.7338 16.8318 20.0263 19.3118 20.345C20.8504 20.5428 22.7471 20.4986 23.9652 20.4365C24.6302 20.4026 25.2018 20.9279 25.2018 21.5938C25.2018 22.2138 24.2718 23.7735 20.8618 23.7638C17.4518 23.7542 17.4518 23.755 17.4518 23.755C17.4518 24.3548 17.9384 24.8411 18.5382 24.8411H21.4818C25.8218 24.8411 28.9749 21.1298 31.1449 19.5798C32.0126 18.9601 32.6841 18.8802 33.1516 19.0327C33.8797 19.2703 33.6426 20.2156 33.138 20.7917C31.5409 22.6154 29.2091 25.1955 26.6919 26.6638C22.9719 28.8338 16.715 27.513 14.855 27.513C13.7472 27.513 11.2917 28.9267 9.98112 29.8198C9.58184 30.0919 8.89288 29.9403 8.69295 29.5004Z" fill="#29CCA3"/>
<path d="M18.9378 13.9956C13.0931 19.1579 8.76896 10.2353 5.61944 7.13003C5.29914 6.81423 5.32288 6.25355 5.71213 6.02816C15.8366 0.165627 24.0743 9.45879 18.9378 13.9956Z" fill="#29CCA3"/>
<path d="M23.2281 14.273C27.437 18.317 30.7131 11.3364 31.5879 8.90917C31.6463 8.74727 31.5806 8.56777 31.4347 8.47644C25.1743 4.55657 18.905 10.1194 23.2281 14.273Z" fill="#29CCA3"/>
<path d="M14.7729 10.0455C14.7729 10.0455 20.057 13.216 20.7616 18.8524" stroke="#29CCA3" stroke-width="1.2721" stroke-linecap="round"/>
<path d="M20.8608 18.8101C20.8608 18.8101 21.1709 16.0201 23.9608 13.5401" stroke="#29CCA3" stroke-width="1.2721" stroke-linecap="round"/>
</g>
</svg>
