<svg width="48" height="48" viewBox="0 0 48 48" fill="none" xmlns="http://www.w3.org/2000/svg">
<path fill-rule="evenodd" clip-rule="evenodd" d="M20.1522 7.5C19.9106 7.5 19.6771 7.58748 19.495 7.74626L12.9995 13.4096C12.0369 14.2488 10.8023 14.7064 9.53046 14.7064L6.5023 14.7064C5.94949 14.7064 5.50156 15.1549 5.5023 15.7077L5.53047 36.5014C5.53122 37.0531 5.97871 37.5 6.53047 37.5H41.5C42.0523 37.5 42.5 37.0523 42.5 36.5V15.7064C42.5 15.1541 42.0523 14.7064 41.5 14.7064H38.4606C37.1865 14.7064 35.9496 14.2471 34.9863 13.405L28.5146 7.74714C28.3323 7.58781 28.0985 7.5 27.8564 7.5H20.1522ZM16.9373 3.3427C17.5644 2.79599 18.3659 2.5 19.1889 2.5H28.8216C29.6462 2.5 30.4492 2.7971 31.0767 3.3457L38.2772 9.64063C38.3212 9.67911 38.3861 9.70637 38.4606 9.70637H43.1665C44.3476 9.70637 45.4295 10.179 46.2145 10.9498C47.0004 11.7214 47.5 12.8047 47.5 14.0067V38.1997C47.5 39.4017 47.0004 40.4849 46.2145 41.2565C45.4295 42.0274 44.3476 42.5 43.1665 42.5H4.86629C3.68623 42.5 2.60513 42.0282 1.82022 41.2585C1.03453 40.488 0.534375 39.4062 0.532776 38.2054L0.500004 14.0124C0.49844 12.8104 0.99668 11.7263 1.78155 10.9537C2.565 10.1825 3.64608 9.70786 4.82687 9.70638L4.83 9.70637H9.53046C9.60485 9.70637 9.66963 9.67922 9.71365 9.64084L16.9373 3.3427Z" fill="#1A1A1A"/>
<path fill-rule="evenodd" clip-rule="evenodd" d="M24 19.5C21.2386 19.5 19 21.7386 19 24.5C19 27.2614 21.2386 29.5 24 29.5C26.7614 29.5 29 27.2614 29 24.5C29 21.7386 26.7614 19.5 24 19.5ZM14 24.5C14 18.9772 18.4772 14.5 24 14.5C29.5228 14.5 34 18.9772 34 24.5C34 30.0228 29.5228 34.5 24 34.5C18.4772 34.5 14 30.0228 14 24.5Z" fill="#1A1A1A"/>
</svg>
