<svg width="48" height="48" viewBox="0 0 48 48" fill="none" xmlns="http://www.w3.org/2000/svg">
<path d="M31.2142 15.0606C30.6881 20.1443 26.6891 23.4811 22.707 23.069C18.7249 22.6569 15.4939 18.572 16.02 13.4883C16.546 8.40468 20.545 5.06789 24.5271 5.47995C28.5092 5.89201 31.7402 9.97694 31.2142 15.0606ZM7.53516 37.526C7.53516 37.3099 7.65739 37.1123 7.85081 37.0159L18.8512 31.5302C22.2614 29.8296 26.2723 29.8296 29.6824 31.5302L40.6829 37.0159C40.8763 37.1123 40.9985 37.3099 40.9985 37.526V40.9276C40.9985 41.2424 40.7433 41.4976 40.4285 41.4976H8.1052C7.79037 41.4976 7.53516 41.2424 7.53516 40.9276V37.526Z" stroke="black" stroke-width="4"/>
</svg>
