<svg width="70" height="70" viewBox="0 0 70 70" fill="none" xmlns="http://www.w3.org/2000/svg">
<g clip-path="url(#clip0_2_373)">
<path d="M21.2024 17.7827C30.1605 7.76578 45.8389 7.76578 54.797 17.7827V17.7827C56.9364 20.175 59.5622 22.0827 62.4984 23.3781V23.3781C74.7934 28.8024 79.6382 43.7135 72.8798 55.3286V55.3286C71.2657 58.1025 70.2628 61.1892 69.9381 64.3821V64.3821C68.5786 77.7515 55.8945 86.967 42.7594 84.1286V84.1286C39.6225 83.4507 36.3769 83.4507 33.24 84.1286V84.1286C20.1049 86.967 7.42077 77.7515 6.0613 64.3821V64.3821C5.73663 61.1892 4.73369 58.1025 3.11963 55.3286V55.3286C-3.63885 43.7135 1.20604 28.8024 13.501 23.3781V23.3781C16.4372 22.0827 19.063 20.175 21.2024 17.7827V17.7827Z" fill="#08DF1E" fill-opacity="0.12"/>
<path d="M35 44.5C35 46.433 33.433 48 31.5 48C29.567 48 28 46.433 28 44.5C28 42.567 29.567 41 31.5 41C33.433 41 35 42.567 35 44.5Z" fill="#96DEA0"/>
<path d="M50 44.5C50 46.433 48.433 48 46.5 48C44.567 48 43 46.433 43 44.5C43 42.567 44.567 41 46.5 41C48.433 41 50 42.567 50 44.5Z" fill="#96DEA0"/>
<path d="M47.7754 55.2842C45.2126 56.8315 42.2079 57.7217 39 57.7217C35.7921 57.7217 32.7874 56.8315 30.2246 55.2842L31.7754 52.7158C33.8834 53.9886 36.3538 54.7217 39 54.7217C41.6462 54.7217 44.1166 53.9886 46.2246 52.7158L47.7754 55.2842Z" fill="#96DEA0"/>
</g>
<defs>
<clipPath id="clip0_2_373">
<rect width="70" height="70" fill="white"/>
</clipPath>
</defs>
</svg>
