<svg width="48" height="48" viewBox="0 0 48 48" fill="none" xmlns="http://www.w3.org/2000/svg">
<path fill-rule="evenodd" clip-rule="evenodd" d="M24 6.4C14.2798 6.4 6.4 14.2798 6.4 24C6.4 33.7202 14.2798 41.6 24 41.6C33.7202 41.6 41.6 33.7202 41.6 24C41.6 14.2798 33.7202 6.4 24 6.4ZM2 24C2 11.8497 11.8497 2 24 2C36.1503 2 46 11.8497 46 24C46 36.1503 36.1503 46 24 46C11.8497 46 2 36.1503 2 24Z" fill="#1A1A1A"/>
<path fill-rule="evenodd" clip-rule="evenodd" d="M21.8 17.4V12.45H26.2V17.4H21.8Z" fill="#1A1A1A"/>
<path fill-rule="evenodd" clip-rule="evenodd" d="M21.8 35.55V20.7H26.2V35.55H21.8Z" fill="#1A1A1A"/>
</svg>
