<svg width="40" height="40" viewBox="0 0 40 40" fill="none" xmlns="http://www.w3.org/2000/svg">
<rect width="40" height="40" rx="20" fill="#F5F5F5"/>
<path d="M21.9775 10C22.721 10 23.436 10.2881 23.9717 10.8037L25.2275 12.0127H26.708C29.3542 12.0127 31.4998 14.1576 31.5 16.8037V25.333C31.5 27.9794 29.3544 30.125 26.708 30.125H13.292C10.6456 30.125 8.5 27.9794 8.5 25.333V16.8037C8.50025 14.1576 10.6458 12.0127 13.292 12.0127H14.7725L16.0283 10.8037C16.564 10.2881 17.279 10 18.0225 10H21.9775ZM19.999 15.2705C17.0882 15.2707 14.7285 17.6311 14.7285 20.542C14.7287 23.4527 17.0883 25.8123 19.999 25.8125C22.9099 25.8125 25.2703 23.4528 25.2705 20.542C25.2705 17.631 22.91 15.2705 19.999 15.2705ZM20 17.667C21.5878 17.667 22.875 18.9542 22.875 20.542C22.8748 22.1297 21.5877 23.417 20 23.417C18.4123 23.417 17.1252 22.1297 17.125 20.542C17.125 18.9542 18.4122 17.667 20 17.667Z" fill="#1E90FF"/>
</svg>
