<svg width="48" height="48" viewBox="0 0 48 48" fill="none" xmlns="http://www.w3.org/2000/svg">
<path fill-rule="evenodd" clip-rule="evenodd" d="M35.66 42.66L40 47.0001L42.8284 44.1716L2.82843 4.17163L0 7.00006L5.3409 12.341C3.2244 15.7212 2.00091 19.7177 2.00091 24C2.00091 36.1503 11.8506 46 24.0009 46C28.2832 46 32.2797 44.7765 35.66 42.66ZM32.5998 39.5999L24.645 31.6451L20.98 36.1154C20.4296 36.7868 19.3588 36.1934 19.6362 35.3708L21.8392 28.8392L18.7868 25.7869L16.4773 25.814C15.8194 25.8218 15.4474 25.0622 15.8569 24.5472L16.6056 23.6057L8.40105 15.4011C6.99286 17.9504 6.19138 20.8816 6.19138 24C6.19138 33.8359 14.165 41.8095 24.0009 41.8095C27.1193 41.8095 30.0505 41.0081 32.5998 39.5999ZM24.0009 2C18.9513 2 14.2991 3.70122 10.5861 6.56178L13.5802 9.55583C16.51 7.43839 20.1097 6.19048 24.0009 6.19048C33.8368 6.19048 41.8104 14.1641 41.8104 24C41.8104 27.8912 40.5625 31.4909 38.4451 34.4207L41.4391 37.4148C44.2997 33.7018 46.0009 29.0496 46.0009 24C46.0009 11.8497 36.1512 2 24.0009 2ZM32.1341 22.5105L29.6116 25.5873L25.1992 21.1749L31.5376 21.2346C32.1933 21.2408 32.5498 22.0035 32.1341 22.5105ZM21.4889 17.4646L24.9341 20.9097L27.2029 12.6878C27.4291 11.8682 26.3682 11.3286 25.839 11.994L21.4889 17.4646Z" fill="#1A1A1A"/>
</svg>
