<svg width="22" height="22" viewBox="0 0 22 22" fill="none" xmlns="http://www.w3.org/2000/svg">
<path d="M19.969 1.17813C20.3497 0.797667 20.9999 1.06675 21.0002 1.60489V7.39981H18.7336C18.3998 7.39981 18.1292 7.67047 18.1292 8.0043C18.1293 8.33799 18.3999 8.60879 18.7336 8.60879H21.0002V11.7826H18.7336C18.3998 11.7826 18.1292 12.0533 18.1292 12.3871C18.1296 12.7206 18.4001 12.9906 18.7336 12.9906H21.0002V15.8627H18.7336C18.3998 15.8627 18.1292 16.1334 18.1292 16.4672C18.1296 16.8007 18.4001 17.0717 18.7336 17.0717H21.0002V20.0004C21 20.5525 20.5524 21.0004 20.0002 21.0004H1.60572C1.06736 21.0003 0.797553 20.349 1.17798 19.9682L19.969 1.17813ZM16.0139 12.058C16.0138 11.7889 15.6877 11.6538 15.4973 11.8441L10.7874 16.5551C10.597 16.7455 10.732 17.0707 11.0012 17.0707H15.7112C15.878 17.0707 16.0138 16.9357 16.0139 16.7689V12.058Z" fill="#1E90FF"/>
</svg>
