<svg width="48" height="48" viewBox="0 0 48 48" fill="none" xmlns="http://www.w3.org/2000/svg">
<path fill-rule="evenodd" clip-rule="evenodd" d="M34 24C34 29.5228 29.5228 34 24 34C18.4772 34 14 29.5228 14 24C14 18.4772 18.4772 14 24 14C29.5228 14 34 18.4772 34 24ZM29 24C29 26.7614 26.7614 29 24 29C21.2386 29 19 26.7614 19 24C19 21.2386 21.2386 19 24 19C26.7614 19 29 21.2386 29 24Z" fill="#1A1A1A"/>
<path fill-rule="evenodd" clip-rule="evenodd" d="M48 23.9883C48.0003 25.1963 47.6858 26.4207 47.0388 27.5175L38.7052 41.6449C37.513 43.666 35.3267 45 32.8627 45H15.1378C12.6739 45 10.4877 43.666 9.29548 41.645L0.9613 27.5177C0.314232 26.4208 -0.000327808 25.1964 2.56339e-07 23.9883C0.00032832 22.7803 0.315533 21.556 0.963238 20.4595L9.29642 6.35166C10.4891 4.33244 12.6743 3 15.1368 3H32.8637C35.3263 3 37.5116 4.33254 38.7042 6.35184L47.0369 20.4596C47.6845 21.5561 47.9997 22.7803 48 23.9883ZM42.7323 24.9771C42.9109 24.6744 43.0001 24.332 43 23.9897C42.9999 23.6474 42.9105 23.3051 42.7317 23.0024L34.3991 8.89462C34.0707 8.3386 33.4896 8 32.8637 8H15.1368C14.511 8 13.9299 8.33858 13.6015 8.89458L5.2683 23.0024C5.08953 23.305 5.00009 23.6473 5 23.9897C4.99991 24.332 5.08916 24.6744 5.26777 24.9772L13.602 39.1045C13.9303 39.661 14.5116 40 15.1378 40H32.8627C33.4889 40 34.0703 39.661 34.3986 39.1045L42.7323 24.9771Z" fill="#1A1A1A"/>
</svg>
