<svg width="48" height="48" viewBox="0 0 48 48" fill="none" xmlns="http://www.w3.org/2000/svg">
<path fill-rule="evenodd" clip-rule="evenodd" d="M9.75749 5H38.2425C41.9746 5 45 8.02543 45 11.7575V36.2425C45 39.9746 41.9746 43 38.2425 43H9.75749C6.02543 43 3 39.9746 3 36.2425V11.7575C3 8.02543 6.02543 5 9.75749 5ZM9.75749 10C8.78686 10 8 10.7869 8 11.7575V36.2425C8 37.2131 8.78686 38 9.75749 38H38.2425C39.2131 38 40 37.2131 40 36.2425V11.7575C40 10.7869 39.2131 10 38.2425 10H9.75749Z" fill="#1A1A1A"/>
<path fill-rule="evenodd" clip-rule="evenodd" d="M20.0231 26.6091C19.1123 26.208 18.0503 26.3854 17.3192 27.0608L7.19551 37.3365L3.80273 33.6637L13.9264 23.388C16.1196 21.362 19.3056 20.8299 22.0381 22.0331L43.0066 31.7069L40.9916 36.2829L20.0231 26.6091Z" fill="#1A1A1A"/>
<path d="M36 18C36 19.6569 34.6569 21 33 21C31.3431 21 30 19.6569 30 18C30 16.3431 31.3431 15 33 15C34.6569 15 36 16.3431 36 18Z" fill="#1A1A1A"/>
</svg>
