<svg width="48" height="48" viewBox="0 0 48 48" fill="none" xmlns="http://www.w3.org/2000/svg">
<path fill-rule="evenodd" clip-rule="evenodd" d="M24.0752 8.5C15.4634 8.5 8.5 15.4494 8.5 24C8.5 32.5506 15.4634 39.5 24.0752 39.5C28.4961 39.5 32.4815 37.6704 35.3181 34.7268C36.6426 33.3524 37.7136 31.7377 38.4591 29.9574C38.9791 28.7156 39.3413 27.3919 39.5208 26.0101L39.8429 23.5309L44.8012 24.1751L44.4792 26.6542C44.2413 28.4851 43.7609 30.2413 43.071 31.8887C42.0826 34.2491 40.6654 36.3834 38.9185 38.1963C35.1761 42.0798 29.9063 44.5 24.0752 44.5C12.7216 44.5 3.5 35.3316 3.5 24C3.5 12.6684 12.7216 3.5 24.0752 3.5H26.5752V8.5H24.0752Z" fill="#1A1A1A"/>
<path fill-rule="evenodd" clip-rule="evenodd" d="M16.5551 20.5541L22.3379 26.3369C22.5471 26.5461 22.8911 26.5289 23.0784 26.3L36.8703 9.44322L40.7401 12.6094L26.9482 29.4662C24.8877 31.9845 21.1032 32.1733 18.8024 29.8724L13.0195 24.0896L16.5551 20.5541Z" fill="#1A1A1A"/>
</svg>
