<svg width="48" height="48" viewBox="0 0 48 48" fill="none" xmlns="http://www.w3.org/2000/svg">
<path fill-rule="evenodd" clip-rule="evenodd" d="M9.75749 6H38.2425C41.4223 6 44 8.57772 44 11.7575V36.2425C44 39.4223 41.4223 42 38.2425 42H9.75749C6.57772 42 4 39.4223 4 36.2425V11.7575C4 8.57772 6.57771 6 9.75749 6ZM9.75749 10C8.78686 10 8 10.7869 8 11.7575V36.2425C8 37.2131 8.78686 38 9.75749 38H38.2425C39.2131 38 40 37.2131 40 36.2425V11.7575C40 10.7869 39.2131 10 38.2425 10H9.75749Z" fill="#1A1A1A"/>
<path fill-rule="evenodd" clip-rule="evenodd" d="M20.2252 26.1515C19.1322 25.6702 17.8578 25.8831 16.9805 26.6935L6.8568 36.9692L4.14258 34.031L14.2663 23.7553C16.3132 21.8644 19.2868 21.3677 21.8372 22.4907L42.8057 32.1645L41.1937 35.8253L20.2252 26.1515Z" fill="#1A1A1A"/>
<path d="M36 18C36 19.6569 34.6569 21 33 21C31.3431 21 30 19.6569 30 18C30 16.3431 31.3431 15 33 15C34.6569 15 36 16.3431 36 18Z" fill="#1A1A1A"/>
</svg>
