<svg width="24" height="24" viewBox="0 0 24 24" fill="none" xmlns="http://www.w3.org/2000/svg">
<path fill-rule="evenodd" clip-rule="evenodd" d="M12 16.5C14.4853 16.5 16.5 14.4853 16.5 12C16.5 9.51472 14.4853 7.5 12 7.5C9.51472 7.5 7.5 9.51472 7.5 12C7.5 14.4853 9.51472 16.5 12 16.5ZM12 14.5C13.3807 14.5 14.5 13.3807 14.5 12C14.5 10.6193 13.3807 9.5 12 9.5C10.6193 9.5 9.5 10.6193 9.5 12C9.5 13.3807 10.6193 14.5 12 14.5Z" fill="#1A1A1A"/>
<path fill-rule="evenodd" clip-rule="evenodd" d="M15.5923 3.67088L14.9167 0.968445H9.08416L8.40855 3.67088C8.37918 3.78836 8.2306 4.05578 7.73897 4.32936C7.65385 4.37672 7.56962 4.42546 7.48631 4.47552C7.00689 4.76362 6.70199 4.75856 6.58578 4.72532L3.90554 3.95861L0.989258 9.00976L2.99305 10.9473C3.08055 11.0319 3.23732 11.2938 3.22802 11.8514C3.22719 11.9008 3.22678 11.9504 3.22678 12C3.22678 12.0496 3.22719 12.0991 3.22802 12.1486C3.23732 12.7062 3.08055 12.9681 2.99305 13.0527L0.989258 14.9902L3.90554 20.0414L6.58578 19.2747C6.70199 19.2414 7.00689 19.2364 7.48631 19.5245C7.56962 19.5745 7.65385 19.6233 7.73897 19.6706C8.2306 19.9442 8.37918 20.2116 8.40855 20.3291L9.08416 23.0315H14.9167L15.5923 20.3291C15.6217 20.2116 15.7703 19.9442 16.2619 19.6706C16.3471 19.6232 16.4314 19.5744 16.5148 19.5243C16.9943 19.2362 17.2992 19.2412 17.4154 19.2745L20.0963 20.0414L23.0126 14.9902L21.0079 13.0518C20.9204 12.9673 20.7636 12.7053 20.7729 12.1478C20.7737 12.0986 20.7741 12.0494 20.7741 12C20.7741 11.9505 20.7737 11.9012 20.7729 11.8519C20.7636 11.2944 20.9204 11.0324 21.0078 10.9478L23.0122 9.00975L20.0959 3.9586L17.4153 4.72543C17.2991 4.75867 16.9942 4.76373 16.5147 4.47562C16.4314 4.42552 16.3471 4.37675 16.2619 4.32936C15.7703 4.05578 15.6217 3.78836 15.5923 3.67088ZM6.03572 6.64819L4.85682 6.31095L3.50208 8.65741L4.38328 9.50945C5.01196 10.1173 5.24233 11.0104 5.22774 11.8847C5.2271 11.9231 5.22678 11.9615 5.22678 12C5.22678 12.0385 5.2271 12.0769 5.22774 12.1152C5.24233 12.9896 5.01196 13.8827 4.38328 14.4905L3.50208 15.3426L4.85682 17.689L6.03573 17.3518C6.87727 17.1111 7.7662 17.3593 8.51646 17.8102C8.58078 17.8488 8.6458 17.8864 8.71148 17.923C9.47656 18.3487 10.1365 18.9946 10.3488 19.844L10.6457 21.0315H13.3552L13.652 19.844C13.8644 18.9946 14.5243 18.3487 15.2894 17.923C15.3552 17.8864 15.4202 17.8487 15.4846 17.8101C16.2349 17.3592 17.1239 17.1109 17.9655 17.3516L19.145 17.689L20.4997 15.3426L19.6176 14.4896C18.989 13.8818 18.7586 12.9889 18.7731 12.1147C18.7738 12.0765 18.7741 12.0383 18.7741 12C18.7741 11.9616 18.7738 11.9233 18.7731 11.8851C18.7586 11.0108 18.989 10.1178 19.6176 9.51001L20.4994 8.65741L19.1447 6.31094L17.9653 6.6483C17.1238 6.88904 16.2348 6.64076 15.4845 6.18988C15.4202 6.15121 15.3551 6.11357 15.2894 6.07699C14.5243 5.65124 13.8644 5.00538 13.652 4.15595L13.3552 2.96844H10.6457L10.3488 4.15595C10.1365 5.00538 9.47656 5.65124 8.71148 6.07699C8.64579 6.11354 8.58078 6.15116 8.51646 6.18981C7.7662 6.64066 6.87727 6.88892 6.03572 6.64819Z" fill="#1A1A1A"/>
</svg>
