<svg width="74" height="74" viewBox="0 0 74 74" fill="none" xmlns="http://www.w3.org/2000/svg">
<path d="M52.331 33C52.331 34.5493 52.331 41.258 52.331 46.0353C52.331 47.6949 51.5584 49.2579 50.2408 50.2671L41.582 56.8994C38.687 59.1168 34.6589 59.0959 31.7872 56.8485L23.3783 50.2676C22.0867 49.2568 21.332 47.7078 21.332 46.0677V33" stroke="#FFF6FD" stroke-width="2"/>
<path d="M58.9986 59.9984V33.9993C58.9986 21.8494 49.1491 12 36.9993 12C24.8494 12 15 21.8494 15 33.9993V59.9984" stroke="#FFF6FD" stroke-width="2"/>
<path d="M21 6H12C8.68629 6 6 8.68629 6 12V21" stroke="white" stroke-width="2"/>
<path d="M21 68H12C8.68629 68 6 65.3137 6 62V53" stroke="white" stroke-width="2"/>
<path d="M52 6H61C64.3137 6 67 8.68629 67 12V21" stroke="white" stroke-width="2"/>
<path d="M52 68H61C64.3137 68 67 65.3137 67 62V53" stroke="white" stroke-width="2"/>
<path d="M35.464 39.714C35.352 39.058 35.384 38.482 35.56 37.986C35.752 37.474 36.032 37.018 36.4 36.618C36.768 36.202 37.168 35.826 37.6 35.49C38.048 35.138 38.464 34.802 38.848 34.482C39.248 34.146 39.576 33.802 39.832 33.45C40.104 33.082 40.24 32.69 40.24 32.274C40.24 31.746 40.112 31.29 39.856 30.906C39.6 30.522 39.216 30.226 38.704 30.018C38.208 29.794 37.592 29.682 36.856 29.682C36.072 29.682 35.328 29.85 34.624 30.186C33.936 30.522 33.272 31.034 32.632 31.722L31.048 30.258C31.816 29.394 32.704 28.706 33.712 28.194C34.72 27.666 35.872 27.402 37.168 27.402C38.304 27.402 39.304 27.586 40.168 27.954C41.032 28.306 41.704 28.826 42.184 29.514C42.68 30.202 42.928 31.042 42.928 32.034C42.928 32.626 42.792 33.154 42.52 33.618C42.264 34.066 41.928 34.474 41.512 34.842C41.112 35.21 40.68 35.57 40.216 35.922C39.768 36.258 39.352 36.61 38.968 36.978C38.6 37.33 38.312 37.73 38.104 38.178C37.896 38.61 37.832 39.122 37.912 39.714H35.464ZM36.712 45.834C36.2 45.834 35.776 45.666 35.44 45.33C35.104 44.994 34.936 44.554 34.936 44.01C34.936 43.466 35.104 43.026 35.44 42.69C35.792 42.354 36.216 42.186 36.712 42.186C37.208 42.186 37.632 42.354 37.984 42.69C38.336 43.026 38.512 43.466 38.512 44.01C38.512 44.554 38.336 44.994 37.984 45.33C37.632 45.666 37.208 45.834 36.712 45.834Z" fill="white"/>
</svg>
