<svg width="48" height="48" viewBox="0 0 48 48" fill="none" xmlns="http://www.w3.org/2000/svg">
<path fill-rule="evenodd" clip-rule="evenodd" d="M33 24C33 28.9706 28.9706 33 24 33C19.0294 33 15 28.9706 15 24C15 19.0294 19.0294 15 24 15C28.9706 15 33 19.0294 33 24ZM29 24C29 26.7614 26.7614 29 24 29C21.2386 29 19 26.7614 19 24C19 21.2386 21.2386 19 24 19C26.7614 19 29 21.2386 29 24Z" fill="#1A1A1A"/>
<path fill-rule="evenodd" clip-rule="evenodd" d="M47 23.9886C47.0003 25.0235 46.7308 26.0714 46.1775 27.0094L37.8439 41.1368C36.8244 42.865 34.9592 44 32.8627 44H15.1378C13.0414 44 11.1762 42.865 10.1568 41.1369L1.82259 27.0096C1.26922 26.0716 0.999722 25.0235 1 23.9886C1.00028 22.9537 1.27033 21.9058 1.82425 20.968L10.1574 6.86025C11.1773 5.13367 13.0417 4 15.1368 4H32.8637C34.959 4 36.8234 5.13375 37.8432 6.86039L46.1758 20.9682C46.7297 21.9059 46.9997 22.9537 47 23.9886ZM42.7323 24.9771C42.9109 24.6744 43.0001 24.332 43 23.9897C42.9999 23.6474 42.9105 23.3051 42.7317 23.0024L34.3991 8.89462C34.0707 8.3386 33.4896 8 32.8637 8H15.1368C14.511 8 13.9299 8.33858 13.6015 8.89458L5.2683 23.0024C5.08953 23.305 5.00009 23.6473 5 23.9897C4.99991 24.332 5.08916 24.6744 5.26777 24.9772L13.602 39.1045C13.9303 39.661 14.5116 40 15.1378 40H32.8627C33.4889 40 34.0703 39.661 34.3986 39.1045L42.7323 24.9771Z" fill="#1A1A1A"/>
</svg>
