<svg width="48" height="48" viewBox="0 0 48 48" fill="none" xmlns="http://www.w3.org/2000/svg">
<path fill-rule="evenodd" clip-rule="evenodd" d="M6.17773 9.37161C6.17773 5.86885 9.01729 3.0293 12.5201 3.0293H38.6571C42.1599 3.0293 44.9994 5.86884 44.9994 9.37161V37.7704C44.9994 41.2732 42.1599 44.1128 38.6571 44.1128H12.5201C9.01729 44.1128 6.17773 41.2732 6.17773 37.7704V29.1706H10.1777V37.7704C10.1777 39.0641 11.2264 40.1128 12.5201 40.1128H38.6571C39.9508 40.1128 40.9994 39.0641 40.9994 37.7704V9.37161C40.9994 8.07799 39.9507 7.0293 38.6571 7.0293H12.5201C11.2264 7.0293 10.1777 8.07799 10.1777 9.37161V17.9715H6.17773V9.37161ZM24.2461 13.3743L30.9077 20.0368C32.8602 21.9895 32.8602 25.1556 30.9077 27.1083L24.2461 33.7708L21.4179 30.9422L26.7883 25.571H2V21.571H26.7853L21.4179 16.2029L24.2461 13.3743Z" fill="#1A1A1A"/>
</svg>
