<svg width="80" height="80" viewBox="0 0 80 80" fill="none" xmlns="http://www.w3.org/2000/svg">
<g clip-path="url(#clip0_1570_1806)">
<g opacity="0.2">
<path fill-rule="evenodd" clip-rule="evenodd" d="M41.0565 79.8234C37.9342 85.4969 31.8986 89.3413 24.9651 89.3413C14.8281 89.3413 6.61035 81.1236 6.61035 70.9866C6.61035 63.9229 10.6005 57.7912 16.4497 54.7224C10.6005 51.6536 6.61035 45.5219 6.61035 38.4583C6.61035 28.3212 14.8281 20.1035 24.9651 20.1035C32.0315 20.1035 38.1652 24.0967 41.2328 29.9497C44.3004 24.0967 50.4341 20.1035 57.5005 20.1035C67.6376 20.1035 75.8553 28.3212 75.8553 38.4583C75.8553 45.5938 71.7836 51.7783 65.8368 54.8151C71.5915 57.9134 75.5029 63.9935 75.5029 70.9872C75.5029 81.1242 67.2852 89.3419 57.1482 89.3419C50.2145 89.3419 44.1787 85.4972 41.0565 79.8234ZM30.9253 39.5289L38.656 47.2596L33.5022 52.4134L25.7714 44.6827L30.9253 39.5289ZM43.8109 47.26L51.5417 39.5292L56.6955 44.6831L48.9648 52.4138L43.8109 47.26ZM25.7745 65.2982L33.5052 57.5675L38.659 62.7213L30.9283 70.4521L25.7745 65.2982ZM56.6961 65.2983L48.9653 57.5676L43.8115 62.7214L51.5422 70.4521L56.6961 65.2983Z" fill="#FF8F00"/>
</g>
</g>
<defs>
<clipPath id="clip0_1570_1806">
<rect width="80" height="80" fill="white"/>
</clipPath>
</defs>
</svg>
