<svg width="40" height="40" viewBox="0 0 40 40" fill="none" xmlns="http://www.w3.org/2000/svg">
<path d="M9.0102 3C7.5068 5.08163 4.5 9.59184 4.5 10.9796C4.5 12.3673 7.5068 13.1769 9.0102 13.4082C8.20068 14.449 6.72041 16.6694 7.27551 17.2245M7.27551 17.2245C7.83061 17.7796 8.20068 18.6122 8.31633 18.9592C8.08503 20 7.76122 22.151 8.31633 22.4286M7.27551 17.2245C7.7381 16.9932 8.87143 16.5306 9.70408 16.5306C10.5367 16.5306 13.6361 18.1497 14.5612 18.9592C13.7517 20.1156 10.5367 22.4286 8.31633 22.4286M8.31633 22.4286C11.7857 24.1633 8.31633 29.0204 10.398 31.102C13.1408 33.8448 26.86 29.8888 28.9023 26.9388C30.4635 24.6837 29.2492 19.6531 29.8265 17.2245" stroke="white" stroke-width="1.24898"/>
<path d="M23.9297 29.3672C24.8549 30.7549 26.7052 34.2243 26.7052 36.9998" stroke="white" stroke-width="1.24898"/>
<circle cx="26.7054" cy="24.5101" r="8.32653" fill="#D9D9D9" fill-opacity="0.2"/>
<circle cx="26.7054" cy="24.5101" r="8.32653" fill="url(#paint0_linear_3447_4866)" fill-opacity="0.6" style="mix-blend-mode:color"/>
<path d="M18.8853 28.1099C20.0128 27.8064 25.8499 26.1512 26.4746 24.8574C27.0817 23.5998 26.4749 16.8772 26.4749 15.8364" stroke="white" stroke-width="1.24898" stroke-dasharray="2.52 0.84"/>
<defs>
<linearGradient id="paint0_linear_3447_4866" x1="26.7054" y1="16.1836" x2="26.7054" y2="32.8367" gradientUnits="userSpaceOnUse">
<stop stop-color="#FF4D8E"/>
<stop offset="1" stop-color="#A719D2"/>
</linearGradient>
</defs>
</svg>
