<svg width="70" height="70" viewBox="0 0 70 70" fill="none" xmlns="http://www.w3.org/2000/svg">
<g clip-path="url(#clip0_2_382)">
<path d="M21.2024 20.7827C30.1605 10.7658 45.8389 10.7658 54.797 20.7827V20.7827C56.9364 23.175 59.5622 25.0827 62.4984 26.3781V26.3781C74.7934 31.8024 79.6382 46.7135 72.8798 58.3286V58.3286C71.2657 61.1025 70.2628 64.1892 69.9381 67.3821V67.3821C68.5786 80.7515 55.8945 89.967 42.7594 87.1286V87.1286C39.6225 86.4507 36.3769 86.4507 33.24 87.1286V87.1286C20.1049 89.967 7.42077 80.7515 6.0613 67.3821V67.3821C5.73663 64.1892 4.73369 61.1025 3.11963 58.3286V58.3286C-3.63885 46.7135 1.20604 31.8024 13.501 26.3781V26.3781C16.4372 25.0827 19.063 23.175 21.2024 20.7827V20.7827Z" fill="#0085FF" fill-opacity="0.1"/>
<path d="M35 47.5C35 49.433 33.433 51 31.5 51C29.567 51 28 49.433 28 47.5C28 45.567 29.567 44 31.5 44C33.433 44 35 45.567 35 47.5Z" fill="#92C7FC"/>
<path d="M50 47.5C50 49.433 48.433 51 46.5 51C44.567 51 43 49.433 43 47.5C43 45.567 44.567 44 46.5 44C48.433 44 50 45.567 50 47.5Z" fill="#92C7FC"/>
<path d="M51.6373 37.4703C49.5791 40.2313 47.5643 42.108 45.6283 42.9248C44.6332 43.3447 43.6011 43.508 42.5903 43.2987C41.5709 43.0875 40.7174 42.5268 40.0404 41.752L42.2993 39.778C42.6192 40.1441 42.9209 40.3034 43.1986 40.361C43.4849 40.4203 43.8923 40.4016 44.4623 40.1612C45.6573 39.657 47.2787 38.2965 49.2316 35.6767L51.6373 37.4703Z" fill="#92C7FC"/>
<path d="M27.257 37.5222C29.3236 37.8808 33.3157 38.6812 36.3867 41.8615L34.2285 43.9448C31.8745 41.5071 28.7389 40.8241 26.7431 40.4778L27.257 37.5222Z" fill="#92C7FC"/>
<path d="M33.4609 55.059C35.764 55.9304 38.3261 56.2056 40.9289 55.728C42.137 55.5063 43.2784 55.1358 44.3384 54.6407C45.3217 54.1814 46.2363 53.6135 47.0702 52.9549L48.93 55.3093C47.9165 56.1098 46.8041 56.8008 45.6078 57.3596C44.318 57.962 42.9322 58.4105 41.4703 58.6787C38.3151 59.2577 35.199 58.9244 32.3991 57.8651L33.4609 55.059Z" fill="#92C7FC"/>
</g>
<defs>
<clipPath id="clip0_2_382">
<rect width="70" height="70" fill="white"/>
</clipPath>
</defs>
</svg>
