<svg width="40" height="40" viewBox="0 0 40 40" fill="none" xmlns="http://www.w3.org/2000/svg">
<rect width="40" height="40" rx="20" fill="black" fill-opacity="0.04"/>
<path d="M21.4668 22.9858L21.5244 23.1332C21.6852 23.4623 22.0222 23.6781 22.3975 23.6781H28.5029C26.0324 26.8335 22.2968 29.0804 20 30.1244C17.7746 29.1128 14.2008 26.9704 11.7334 23.9682H14.1934L14.417 23.432L15.0088 22.0092L16.4736 26.0365L16.542 26.1869C16.9327 26.8878 18.015 26.8334 18.3008 26.0297L20.5107 19.7992L21.4668 22.9858ZM20 14.1244C23.6667 8.45829 30.9998 11.1258 31 17.1254C30.9999 18.8668 30.486 20.4766 29.667 21.936H22.9707L21.5029 17.0424L21.4414 16.8842C21.1035 16.1928 20.0992 16.1683 19.7275 16.8422L19.6572 16.9975L17.376 23.4233L15.9707 19.557L15.9043 19.4106C15.5512 18.771 14.6179 18.7493 14.2354 19.3715L14.1621 19.5151L13.0322 22.226H10.4971C9.581 20.6914 9.00008 18.9823 9 17.1254C9.00017 11.1258 16.3333 8.45829 20 14.1244Z" fill="url(#paint0_linear_97_1139)"/>
<defs>
<linearGradient id="paint0_linear_97_1139" x1="20" y1="10.9999" x2="20" y2="30.124" gradientUnits="userSpaceOnUse">
<stop stop-color="#FF6E66"/>
<stop offset="1" stop-color="#DB1307"/>
</linearGradient>
</defs>
</svg>
