<svg width="40" height="40" viewBox="0 0 40 40" fill="none" xmlns="http://www.w3.org/2000/svg">
<path d="M5 17.7344C5 9.4501 11.7157 2.73438 20 2.73438C28.2843 2.73438 35 9.4501 35 17.7344V35.0781H5V17.7344Z" fill="url(#paint0_linear_3447_4719)"/>
<path d="M16.4876 17.0312C21.1719 16.3281 23.5189 14.0625 24.9251 12.5781C26.8001 13.0805 29.847 15.625 29.847 17.6875C29.847 19.2398 29.8452 22.4649 29.8442 24.9648C29.8438 26.3268 29.2513 27.6212 28.2206 28.5116L22.6701 33.3068C20.8794 34.8538 18.2164 34.8235 16.4614 33.2361L11.2313 28.5057C10.2484 27.6167 9.68774 26.3531 9.68817 25.0277L9.69075 17.0312C10.5501 17.0312 13.15 17.5322 16.4876 17.0312Z" fill="#FFD48A"/>
<path d="M12.7383 20C13.0999 21.2149 14.2253 22.1009 15.5577 22.1009C16.8901 22.1009 18.0156 21.2149 18.3771 20" stroke="#191A20" stroke-width="1.8"/>
<path d="M21.8594 20C22.221 21.2149 23.3464 22.1009 24.6788 22.1009C26.0112 22.1009 27.1367 21.2149 27.4982 20" stroke="#191A20" stroke-width="1.8"/>
<circle cx="20" cy="22.5" r="13.75" fill="url(#paint1_linear_3447_4719)" fill-opacity="0.6" style="mix-blend-mode:hard-light"/>
<defs>
<linearGradient id="paint0_linear_3447_4719" x1="20" y1="2.73437" x2="20" y2="35.0781" gradientUnits="userSpaceOnUse">
<stop stop-color="#79566B"/>
<stop offset="1" stop-color="#352635"/>
</linearGradient>
<linearGradient id="paint1_linear_3447_4719" x1="20" y1="8.75" x2="20" y2="36.25" gradientUnits="userSpaceOnUse">
<stop stop-color="#FF714D"/>
<stop offset="1" stop-color="#A719D2"/>
</linearGradient>
</defs>
</svg>
