<svg width="48" height="48" viewBox="0 0 48 48" fill="none" xmlns="http://www.w3.org/2000/svg">
<path fill-rule="evenodd" clip-rule="evenodd" d="M20.1865 3.74902C11.6849 3.74902 4.79297 10.641 4.79297 19.1426C4.79297 27.6442 11.6849 34.5362 20.1865 34.5362C23.5423 34.5362 26.6473 33.4623 29.1767 31.6396L41.2223 44.6118L44.1535 41.89L32.0923 28.9011C34.2719 26.245 35.5801 22.8466 35.5801 19.1426C35.5801 10.641 28.6882 3.74902 20.1865 3.74902ZM8.79297 19.1426C8.79297 12.8501 13.894 7.74902 20.1865 7.74902C26.479 7.74902 31.5801 12.8501 31.5801 19.1426C31.5801 25.4351 26.479 30.5362 20.1865 30.5362C13.894 30.5362 8.79297 25.4351 8.79297 19.1426Z" fill="#1A1A1A"/>
</svg>
