<svg width="74" height="74" viewBox="0 0 74 74" fill="none" xmlns="http://www.w3.org/2000/svg">
<path d="M47.6645 27.3335C49.9978 28.6668 52.331 30.6667 52.331 33C52.331 34.5494 52.331 41.258 52.331 46.0353C52.331 47.6949 51.5584 49.258 50.2408 50.2671L41.582 56.8994C38.687 59.1168 34.6589 59.0959 31.7872 56.8485L23.3783 50.2676C22.0867 49.2568 21.332 47.7078 21.332 46.0677V33C26.9688 33.8429 33.1907 33.5506 38 31.4991C42.4688 29.5929 45.6875 25.4366 47.6645 21.6671M42.3974 20.5C40.609 22.7106 38.3669 24.6813 35.6692 25.8321C31.9777 27.4068 27.4538 27.9449 23.0012 27.7289" stroke="#FFF6FD" stroke-width="2"/>
<path d="M58.9986 59.9984V33.9993C58.9986 21.8494 49.1491 12 36.9993 12C24.8494 12 15 21.8494 15 33.9993V59.9984" stroke="#FFF6FD" stroke-width="2"/>
<path d="M25.1914 37.334C25.7651 39.2616 27.5507 40.6672 29.6647 40.6672C31.7786 40.6672 33.5643 39.2616 34.1379 37.334" stroke="#FFF6FD" stroke-width="2"/>
<path d="M39.666 37.334C40.2397 39.2616 42.0253 40.6672 44.1393 40.6672C46.2532 40.6672 48.0389 39.2616 48.6126 37.334" stroke="#FFF6FD" stroke-width="2"/>
<path d="M21 6H12C8.68629 6 6 8.68629 6 12V21" stroke="white" stroke-width="2"/>
<path d="M21 68H12C8.68629 68 6 65.3137 6 62V53" stroke="white" stroke-width="2"/>
<path d="M52 6H61C64.3137 6 67 8.68629 67 12V21" stroke="white" stroke-width="2"/>
<path d="M52 68H61C64.3137 68 67 65.3137 67 62V53" stroke="white" stroke-width="2"/>
</svg>
