<svg width="36" height="36" viewBox="0 0 36 36" fill="none" xmlns="http://www.w3.org/2000/svg">
<path opacity="0.5" fill-rule="evenodd" clip-rule="evenodd" d="M5.83596 15.8755L9.12182 13.8569L11.9875 15.6174L7.92639 18.1121L17.5477 24.0226L27.169 18.1121L23.1078 15.6174L25.9736 13.8569L29.2594 15.8755C30.9274 16.9001 30.9274 19.3242 29.2594 20.3488L27.4064 21.4871L29.2594 22.6255C30.9274 23.6501 30.9274 26.0742 29.2594 27.0988L18.9217 33.4493C18.0789 33.9671 17.0165 33.9671 16.1737 33.4493L5.83596 27.0988C4.16796 26.0742 4.16796 23.6501 5.83596 22.6255L7.68898 21.4871L5.83596 20.3488C4.16796 19.3242 4.16796 16.9001 5.83596 15.8755ZM10.5547 23.2476L7.92639 24.8621L17.5477 30.7726L27.169 24.8621L24.5407 23.2476L18.9217 26.6993C18.0789 27.2171 17.0165 27.2171 16.1737 26.6993L10.5547 23.2476Z" fill="#00A362"/>
<path fill-rule="evenodd" clip-rule="evenodd" d="M27.1701 11.3619L17.5488 5.45152L7.92753 11.3619L17.5488 17.2723L27.1701 11.3619ZM29.2606 9.12525C30.9286 10.1499 30.9286 12.574 29.2606 13.5986L18.9228 19.9491C18.08 20.4669 17.0177 20.4669 16.1748 19.9491L5.8371 13.5986C4.1691 12.574 4.1691 10.1499 5.8371 9.12525L16.1748 2.77473C17.0177 2.25697 18.08 2.25697 18.9228 2.77473L29.2606 9.12525Z" fill="#00A362"/>
</svg>
