<svg width="48" height="48" viewBox="0 0 48 48" fill="none" xmlns="http://www.w3.org/2000/svg">
<path d="M19.5854 4.82918L18 8H5V13H43V8H30L28.4146 4.82918C28.1605 4.321 27.6411 4 27.0729 4H20.9271C20.3589 4 19.8395 4.321 19.5854 4.82918Z" fill="#1A1A1A"/>
<path d="M33.7627 38.1031L35.5059 15.8279L40.494 16.1719L38.7509 38.4471C38.5158 41.8553 35.6826 44.4999 32.2663 44.4999H15.7336C12.3173 44.4999 9.48402 41.8553 9.24898 38.4471L7.50586 16.1719L12.494 15.8279L14.2371 38.1031C14.2914 38.8896 14.9452 39.4999 15.7336 39.4999H32.2663C33.0547 39.4999 33.7085 38.8896 33.7627 38.1031Z" fill="#1A1A1A"/>
</svg>
