<svg width="80" height="80" viewBox="0 0 80 80" fill="none" xmlns="http://www.w3.org/2000/svg">
<g clip-path="url(#clip0_1570_1808)">
<g opacity="0.2">
<path d="M37.708 62.4546C39.256 68.0561 44.3884 72.1694 50.4824 72.1694C52.5807 72.1694 54.5638 71.6792 56.3271 70.811L64.1494 84.3599C61.0172 85.3914 57.671 85.9526 54.1934 85.9526C42.1896 85.9526 31.7403 79.3022 26.3252 69.4858L37.708 62.4546ZM85.5586 59.4468C83.7738 70.0843 76.7102 78.9301 67.1523 83.1997L58.9951 69.0708C61.7657 66.7456 63.5716 63.3095 63.7236 59.4468H85.5586ZM65.8369 24.5376C77.6434 29.1845 85.9998 40.6886 86 54.145C86 54.8576 85.9739 55.5652 85.9277 56.2661H63.4707C62.7056 52.4971 60.3389 49.3119 57.1143 47.4438L65.8369 24.5376Z" fill="#00BC37"/>
<path d="M51.5418 50.4341H31.8069L18 58.4055" stroke="#00BC37" stroke-width="4.24095"/>
<path d="M22.7061 46.984L10 52.8491" stroke="#00BC37" stroke-width="4.24095"/>
<path d="M14.2527 43.0454L3.00042 46.2154" stroke="#00BC37" stroke-width="4.24095"/>
<path d="M54.1924 45.6621H31L1.6748 30.5879C0.742141 30.108 1.08377 28.6982 2.13281 28.6982H12C13.3615 28.6982 14.2476 27.2656 13.6387 26.0479C13.0298 24.8301 13.9149 23.3975 15.2764 23.3975H62.6738L54.1924 45.6621ZM19.6748 29.7598C18.2112 29.76 17.0245 30.9465 17.0244 32.4102C17.0244 33.8739 18.2111 35.0603 19.6748 35.0605C21.1387 35.0605 22.3262 33.874 22.3262 32.4102C22.3261 30.9464 21.1386 29.7598 19.6748 29.7598Z" fill="#00BC37"/>
</g>
</g>
<defs>
<clipPath id="clip0_1570_1808">
<rect width="80" height="80" fill="white"/>
</clipPath>
</defs>
</svg>
