<svg width="48" height="48" viewBox="0 0 48 48" fill="none" xmlns="http://www.w3.org/2000/svg">
<path fill-rule="evenodd" clip-rule="evenodd" d="M20.2257 16.8229C19.59 18.2288 18.2297 19.1685 16.6898 19.2656C13.837 19.4455 10.919 19.7816 8.40855 20.1272C10.2393 22.2941 12.455 24.7914 14.7014 27.0244C15.6961 28.0131 16.1269 29.4357 15.8479 30.81C15.2737 33.6393 14.8362 36.5795 14.5154 39.1213C16.6789 38.1051 19.1424 36.8841 21.5063 35.5709C22.7778 34.8646 24.3256 34.8721 25.5902 35.5907C28.1573 37.0496 30.8929 38.4114 33.2677 39.5269C32.9412 36.9396 32.4938 33.9398 31.9044 31.0646C31.6208 29.6811 32.0569 28.2481 33.0633 27.2572C35.3893 24.9669 37.6964 22.3702 39.5914 20.1272C37.1655 19.7933 34.3585 19.4681 31.5971 19.2842C30.0628 19.182 28.7093 18.2435 28.0758 16.8423C26.849 14.1289 25.4219 11.3904 24.1445 9.07081C22.8713 11.3858 21.4497 14.1162 20.2257 16.8229ZM21.7322 4.84924C20.1731 7.58032 18.1252 11.3512 16.4275 15.1054C12.4318 15.3573 8.34047 15.9002 5.3287 16.3641C5.228 16.3796 5.12851 16.3951 5.03027 16.4104C3.88619 16.5888 2.91174 16.7534 2.17631 16.8823C2.15948 16.8853 2.14277 16.8882 2.12619 16.8911C1.82167 16.9446 1.55966 16.9917 1.34531 17.0308C1.04102 17.0933 0.898935 17.4585 1.08018 17.7011C1.21793 17.879 1.3875 18.097 1.58591 18.3499C1.59942 18.3671 1.61306 18.3845 1.62684 18.402C2.08476 18.9853 2.68935 19.746 3.40592 20.6254C3.47055 20.7048 3.5361 20.7851 3.60254 20.8663C5.70475 23.4363 8.69377 26.9303 11.7628 29.9809C10.9606 33.9327 10.4185 38.0644 10.0823 41.1188C10.0708 41.2231 10.0596 41.3261 10.0486 41.4277C9.92665 42.5555 9.83395 43.5227 9.76757 44.2612C9.76557 44.2834 9.7636 44.3054 9.76165 44.3272C9.73301 44.6475 9.7095 44.9227 9.69085 45.1469C9.671 45.4491 9.9891 45.6781 10.2783 45.5647C10.4794 45.4808 10.7249 45.3776 11.0094 45.2566C11.0249 45.25 11.0406 45.2433 11.0563 45.2366C11.7433 44.9443 12.6501 44.5516 13.7067 44.0782C13.7974 44.0376 13.8892 43.9964 13.9821 43.9546C16.6427 42.7565 20.173 41.0801 23.5306 39.2149C27.0974 41.2419 30.9489 43.0759 33.801 44.3601C33.8939 44.402 33.9857 44.4432 34.0764 44.4838C35.133 44.9572 36.0398 45.3498 36.7268 45.6422C36.7426 45.6489 36.7582 45.6556 36.7737 45.6622C37.0583 45.7831 37.3037 45.8864 37.5048 45.9703C37.794 46.0836 38.1121 45.8547 38.0923 45.5525C38.0736 45.3283 38.0501 45.0531 38.0215 44.7328C38.0195 44.711 38.0176 44.689 38.0156 44.6668C37.9492 43.9283 37.8565 42.9611 37.7345 41.8333C37.7235 41.7316 37.7123 41.6286 37.7008 41.5244C37.3601 38.429 36.8079 34.2272 35.9879 30.2275C39.1438 27.12 42.2384 23.5058 44.3975 20.8663C44.4639 20.7851 44.5294 20.7048 44.5941 20.6254C45.3106 19.746 45.9152 18.9853 46.3732 18.4021C46.3869 18.3845 46.4006 18.3671 46.4141 18.3499C46.6125 18.097 46.7821 17.879 46.9198 17.7011C47.1011 17.4585 46.959 17.0933 46.6547 17.0308C46.4403 16.9917 46.1783 16.9446 45.8738 16.8911C45.8572 16.8882 45.8405 16.8853 45.8237 16.8823C45.0883 16.7534 44.1138 16.5888 42.9697 16.4104C42.8715 16.3951 42.772 16.3796 42.6713 16.3641C39.7353 15.9118 35.7732 15.3846 31.8741 15.1249C30.173 11.3627 28.1175 7.58172 26.5541 4.84736C26.5035 4.75897 26.4535 4.67168 26.404 4.58551C25.8275 3.58154 25.3247 2.73093 24.9408 2.0906C24.932 2.07594 24.9232 2.06139 24.9146 2.04695C24.7554 1.78172 24.6175 1.55391 24.5041 1.36776C24.3368 1.10609 23.9448 1.10433 23.7833 1.36048C23.6665 1.55286 23.5238 1.78933 23.3587 2.06527C23.3474 2.08407 23.3361 2.10305 23.3246 2.12221C22.9442 2.75867 22.4507 3.5956 21.8865 4.57956C21.8356 4.66827 21.7842 4.75818 21.7322 4.84924Z" fill="#1A1A1A"/>
</svg>
