<svg width="37" height="36" viewBox="0 0 37 36" fill="none" xmlns="http://www.w3.org/2000/svg">
<path d="M17.5058 17.6604C17.2816 13.8876 21.9913 6.47122 24.6377 3.20581C26.3496 5.37169 32.1284 13.7854 32.1284 17.6604C32.1284 21.5354 28.54 24.5826 24.6377 24.5826C20.7354 24.5826 17.7283 21.4044 17.5058 17.6604Z" fill="#599DFE"/>
<path d="M29.3199 16.9331C29.4691 18.4672 29.2729 21.5476 24.124 22.69" stroke="white" stroke-width="1.4737" stroke-linecap="round"/>
<path d="M16.2891 5.86084C17.373 7.23223 19.7076 10.5304 21.7744 14.0923C22.8086 15.8746 23.7866 17.7417 24.5088 19.479C25.2211 21.1925 25.7256 22.8749 25.7256 24.2563C25.7253 29.6281 20.7976 33.7065 15.5732 33.7065C10.2311 33.7065 6.16557 29.3633 5.86523 24.3101C5.78539 22.9666 6.14311 21.3864 6.71484 19.769C7.29254 18.1348 8.11806 16.3843 9.04492 14.6724C10.8975 11.2508 13.1967 7.90968 14.8643 5.85205L15.582 4.96631L16.2891 5.86084Z" fill="#599DFE" stroke="white" stroke-width="1.825" stroke-linecap="round"/>
<path d="M12.7388 19.8759C13.441 19.8759 14.0129 20.1334 14.4399 20.6493L14.5923 20.8514C14.9223 21.3448 15.0806 21.9861 15.0806 22.7616C15.0805 23.6233 14.8644 24.3252 14.4185 24.8524L14.4194 24.8534C13.9809 25.38 13.4171 25.6473 12.7388 25.6473C12.1818 25.6473 11.6916 25.4797 11.271 25.1503V27.0975C11.271 27.2888 11.197 27.4536 11.0552 27.5829L11.0542 27.5819C10.9208 27.7099 10.7562 27.7742 10.5679 27.7743C10.378 27.7743 10.2106 27.71 10.0767 27.58C9.94263 27.4498 9.87451 27.2856 9.87451 27.0975V20.6239C9.87451 20.448 9.94054 20.2944 10.0669 20.1718C10.1978 20.0447 10.3566 19.9774 10.5366 19.9774C10.7146 19.9775 10.8714 20.0435 11.0015 20.1678C11.0958 20.2533 11.16 20.3555 11.1929 20.4706C11.3933 20.287 11.5966 20.1492 11.8022 20.0604C12.0754 19.9358 12.3889 19.8759 12.7388 19.8759ZM20.98 17.8495C21.1777 17.8495 21.3514 17.9184 21.4917 18.0546C21.6321 18.1909 21.7046 18.3617 21.7046 18.5575V24.8387C21.7045 25.0343 21.632 25.2045 21.4917 25.3407C21.3514 25.4769 21.1777 25.5458 20.98 25.5458C20.7824 25.5457 20.6085 25.4768 20.4683 25.3407C20.3282 25.2045 20.2564 25.0342 20.2563 24.8387V22.0399H17.3208V24.8387C17.3207 25.0344 17.2482 25.2045 17.1079 25.3407C16.9676 25.4769 16.7939 25.5458 16.5962 25.5458C16.3986 25.5457 16.2247 25.4768 16.0845 25.3407C15.9444 25.2045 15.8727 25.0342 15.8726 24.8387V18.5575C15.8726 18.3618 15.9442 18.1909 16.0845 18.0546C16.2247 17.9185 16.3986 17.8496 16.5962 17.8495C16.7939 17.8495 16.9676 17.9184 17.1079 18.0546C17.2483 18.1909 17.3208 18.3617 17.3208 18.5575V20.869H20.2563V18.5575C20.2563 18.3618 20.328 18.1909 20.4683 18.0546C20.6085 17.9185 20.7824 17.8495 20.98 17.8495ZM12.478 20.9862C12.1445 20.9862 11.8591 21.0926 11.6157 21.3046C11.3795 21.5097 11.271 21.7405 11.271 22.0018V23.5214C11.271 23.782 11.3792 24.0157 11.6147 24.2274L11.7075 24.2997C11.9297 24.4573 12.1851 24.536 12.478 24.536C12.8497 24.5359 13.135 24.3952 13.3491 24.1102C13.5649 23.823 13.685 23.3811 13.6851 22.7616C13.6851 22.133 13.5728 21.6882 13.3726 21.4042C13.1792 21.1299 12.8899 20.9863 12.478 20.9862Z" fill="white" stroke="white" stroke-width="0.3"/>
</svg>
