<svg width="33" height="30" viewBox="0 0 33 30" fill="none" xmlns="http://www.w3.org/2000/svg">
<path d="M20.098 6.69912C19.4698 6.41883 18.1247 6 16.5379 6C12.6847 6 8.92912 8.23378 7.533 9.35067L1.46378 6.11376C1.37903 6.06856 1.28 6.14266 1.29946 6.23672L2.50699 12.0731L1.30486 17.4827C1.28371 17.5779 1.38352 17.6542 1.46895 17.6072C2.95434 16.79 5.88995 15.1732 7.32359 14.3767C8.37067 15.8426 12.559 17.9368 17.1662 17.9368C18.447 17.9368 19.6307 17.6616 20.7263 17.2103M20.098 6.69912C21.0844 7.13333 24.4844 8.26667 27.6371 11.8637C25.8227 13.6781 23.5716 16.0383 20.7263 17.2103M20.098 6.69912C19.1208 8.6344 17.8782 13.446 20.7263 17.2103M12.2634 9.97893C13.0312 10.677 14.1062 12.5338 12.2634 14.3767M15.4909 9.97893C16.3285 10.677 17.5431 12.5338 15.7003 14.3767M10.6743 18.565L9.68736 22.71C9.66444 22.8063 9.76724 22.8836 9.85338 22.8349L14.4438 20.2404C15.2116 21.2875 17.9201 23.2979 22.611 22.9628C23.4598 22.9022 24.2482 22.7538 24.9753 22.544M27.4276 15.2144C28.7679 16.2196 30.3595 17.7274 30.9877 18.3556C30.3016 19.3848 28.2668 21.5941 24.9753 22.544M24.9753 22.544C24.5362 21.6365 23.7 19.4865 23.8675 18.1462" stroke="#3B3B3B" stroke-width="2.12409" stroke-linecap="round"/>
<circle cx="21.7727" cy="10.3974" r="1.04709" fill="#3B3B3B"/>
<circle cx="26.1707" cy="17.3101" r="0.837669" fill="#3B3B3B"/>
</svg>
