<svg width="48" height="48" viewBox="0 0 48 48" fill="none" xmlns="http://www.w3.org/2000/svg">
<path d="M19.5714 4.77154L17.5 8.5H5V12.5H43V8.5H30.5L28.4286 4.77154C28.1641 4.29534 27.6621 4 27.1174 4H20.8826C20.3379 4 19.8359 4.29534 19.5714 4.77154Z" fill="#1A1A1A"/>
<path d="M34.2608 38.1375L36.0039 15.8623L39.9944 16.1375L38.2513 38.4127C38.0343 41.5587 35.419 43.9999 32.2655 43.9999H15.7328C12.5793 43.9999 9.96399 41.5587 9.74702 38.4127L8.00391 16.1375L11.9944 15.8623L13.7375 38.1375C13.8099 39.1862 14.6816 39.9999 15.7328 39.9999H32.2655C33.3167 39.9999 34.1885 39.1862 34.2608 38.1375Z" fill="#1A1A1A"/>
</svg>
