<svg width="48" height="48" viewBox="0 0 48 48" fill="none" xmlns="http://www.w3.org/2000/svg">
<path d="M9 4C6.23858 4 4 6.23858 4 9V38C4 40.7614 6.23858 43 9 43H40C42.2091 43 44 41.2091 44 39V23H40V38C40 38.5523 39.5523 39 39 39H9C8.44772 39 8 38.5523 8 38V9C8 8.44772 8.44771 8 9 8H33C33.5523 8 34 8.44771 34 9V36H38V9C38 6.23858 35.7614 4 33 4H9Z" fill="#1A1A1A"/>
<path d="M29 17H12V13H29V17Z" fill="#1A1A1A"/>
<path d="M12 25H21V21H12V25Z" fill="#1A1A1A"/>
<rect x="35" y="21" width="9" height="4" fill="#1A1A1A"/>
</svg>
