<svg width="30" height="30" viewBox="0 0 30 30" fill="none" xmlns="http://www.w3.org/2000/svg">
<path d="M10.2545 5.57288C11.5705 5.46915 12.7668 5.50902 14.2821 5.70841C14.6244 4.56752 14.7128 4.04318 15.6887 2.85568C15.7368 2.79713 15.6856 2.70813 15.6112 2.72234C14.0642 3.01768 11.8879 3.27854 10.2545 5.57288ZM10.2545 5.57288C8.9116 5.73759 7.64315 6.15214 6.50605 6.68417M16.0367 5.9078C17.6983 6.24011 21.4042 7.19982 22.9355 8.38019C23.0279 8.44523 23.1074 8.51305 23.1748 8.58262M6.9447 12.4876C5.38949 12.1685 3.15636 11.1636 2.03979 9.85565C2.91877 8.91389 4.51005 7.61806 6.50605 6.68417M6.9447 12.4876C8.98642 9.99921 7.50299 7.58182 6.50605 6.68417M6.9447 12.4876C8.29815 12.7652 9.79163 12.7024 11.2097 12.4876M15.0797 11.5571C15.5246 11.4165 15.9156 11.2831 16.2361 11.1716C20.5429 9.69614 20.9416 9.97528 22.2177 10.1348C22.3458 10.1508 22.4681 10.15 22.5826 10.1348M15.0797 11.5571C15.2658 12.0401 15.8533 13.2372 16.7146 14.1624C14.9999 14.2023 14.0791 14.7207 11.2097 12.4876M15.0797 11.5571C14.0194 11.8924 12.6537 12.2688 11.2097 12.4876M23.1748 8.58262C23.6134 8.34234 24.5385 7.63584 25.1288 7.14399C25.8172 6.57033 26.909 6.1067 27.736 6.3511C27.7881 6.3665 27.8052 6.42963 27.7715 6.47224C27.2733 7.102 26.7532 7.94392 26.5245 8.85872C26.333 9.62436 25.7668 9.85565 25.4876 9.97528C25.8465 10.1481 26.5378 10.6534 26.7238 11.2115C26.9238 11.8114 27.0681 12.7733 27.6221 13.3059C27.6866 13.3679 27.6306 13.5348 27.5414 13.5276C25.8219 13.3893 24.311 13.1772 22.5826 10.1348M23.1748 8.58262C23.802 9.23039 23.3795 10.0293 22.5826 10.1348" stroke="#3B3B3B" stroke-width="1.8" stroke-linecap="round"/>
<circle cx="5.94777" cy="9.01796" r="0.598159" fill="#3B3B3B"/>
<path d="M19.7455 18.6537C18.4295 18.55 17.2332 18.5898 15.7179 18.7892C15.3756 17.6483 15.2872 17.124 14.3113 15.9365C14.2632 15.8779 14.3144 15.7889 14.3888 15.8032C15.9358 16.0985 18.1121 16.3593 19.7455 18.6537ZM19.7455 18.6537C21.0884 18.8184 22.3569 19.233 23.4939 19.765M13.9633 18.9886C12.3017 19.3209 8.59579 20.2806 7.0645 21.461C6.97208 21.526 6.8926 21.5939 6.82524 21.6634M23.0553 25.5684C24.6105 25.2493 26.8436 24.2444 27.9602 22.9365C27.0812 21.9947 25.4899 20.6989 23.4939 19.765M23.0553 25.5684C21.0136 23.08 22.497 20.6626 23.4939 19.765M23.0553 25.5684C21.7018 25.846 20.2084 25.7832 18.7903 25.5684M14.9203 24.638C14.4754 24.4973 14.0844 24.3639 13.7639 24.2524C9.45714 22.777 9.05836 23.0561 7.78229 23.2156C7.65425 23.2316 7.53194 23.2308 7.41737 23.2156M14.9203 24.638C14.7342 25.1209 14.1467 26.3181 13.2854 27.2432C15.0001 27.2831 15.9209 27.8015 18.7903 25.5684M14.9203 24.638C15.9806 24.9732 17.3463 25.3496 18.7903 25.5684M6.82524 21.6634C6.38659 21.4232 5.46147 20.7167 4.87125 20.2248C4.18285 19.6511 3.09099 19.1875 2.26402 19.4319C2.21192 19.4473 2.19477 19.5104 2.22847 19.553C2.72668 20.1828 3.24684 21.0247 3.47554 21.9395C3.66695 22.7052 4.23321 22.9365 4.51235 23.0561C4.15346 23.2289 3.46218 23.7342 3.27616 24.2923C3.0762 24.8922 2.93194 25.8541 2.37787 26.3867C2.31336 26.4487 2.36941 26.6156 2.4586 26.6084C4.17811 26.4701 5.68903 26.258 7.41737 23.2156M6.82524 21.6634C6.19797 22.3112 6.62047 23.1101 7.41737 23.2156" stroke="#3B3B3B" stroke-width="1.8" stroke-linecap="round"/>
<circle cx="0.598159" cy="0.598159" r="0.598159" transform="matrix(-1 0 0 1 24.6504 21.5006)" fill="#3B3B3B"/>
</svg>
