<svg width="28" height="28" viewBox="0 0 28 28" fill="none" xmlns="http://www.w3.org/2000/svg">
<path fill-rule="evenodd" clip-rule="evenodd" d="M13.8506 19.3228C13.6919 19.2609 13.5158 19.2609 13.3571 19.3228L8.88186 21.0664C8.42056 21.2462 7.92801 20.8883 7.95639 20.394L8.2318 15.5991C8.24157 15.429 8.18713 15.2615 8.07927 15.1296L5.03804 11.4123C4.72456 11.0291 4.9127 10.4501 5.39154 10.3243L10.0369 9.10453C10.2017 9.06127 10.3442 8.95773 10.4363 8.81441L13.0319 4.77331C13.2994 4.35676 13.9083 4.35676 14.1758 4.77331L16.7714 8.81441C16.8635 8.95773 17.006 9.06127 17.1707 9.10453L21.8162 10.3243C22.295 10.4501 22.4831 11.0291 22.1696 11.4123L19.1284 15.1296C19.0206 15.2615 18.9661 15.429 18.9759 15.5991L19.2513 20.394C19.2797 20.8883 18.7871 21.2462 18.3258 21.0664L13.8506 19.3228Z" fill="#F5BE0A"/>
</svg>
