<svg width="48" height="48" viewBox="0 0 48 48" fill="none" xmlns="http://www.w3.org/2000/svg">
<path d="M29.5933 17.2418C29.9155 16.9196 30.438 16.9196 30.7603 17.2418C31.0824 17.564 31.0825 18.0866 30.7603 18.4088L25.1655 24.0025L30.7544 29.5914C31.0766 29.9136 31.0766 30.4362 30.7544 30.7584C30.4322 31.0804 29.9106 31.0804 29.5884 30.7584L23.9995 25.1695L18.4116 30.7574C18.0894 31.0796 17.5668 31.0796 17.2446 30.7574C16.9224 30.4352 16.9224 29.9126 17.2446 29.5904L22.8325 24.0025L17.2397 18.4098C16.9175 18.0875 16.9175 17.565 17.2397 17.2428C17.5619 16.921 18.0836 16.921 18.4058 17.2428L23.9985 22.8355L29.5933 17.2418Z" fill="white" fill-opacity="0.88"/>
</svg>
