<svg width="18" height="18" viewBox="0 0 18 18" fill="none" xmlns="http://www.w3.org/2000/svg">
<path fill-rule="evenodd" clip-rule="evenodd" d="M12.9117 2.20607L15.5957 4.89001C15.781 5.07529 15.7922 5.36444 15.6208 5.53583L6.86432 14.2923C6.75082 14.4058 6.60735 14.4847 6.45069 14.5197L3.23687 15.238C2.94402 15.3035 2.67804 15.0516 2.72744 14.7556L3.29101 11.3785C3.32002 11.2046 3.40261 11.0442 3.52723 10.9196L12.2659 2.18091C12.4373 2.00952 12.7264 2.02078 12.9117 2.20607Z" stroke="white" stroke-width="1.5"/>
<path d="M10.5001 14.25C10.0858 14.25 9.75006 14.5858 9.75006 15C9.75006 15.4142 10.0858 15.75 10.5001 15.75V14.25ZM10.5001 15V15.75H15.7501V15V14.25H10.5001V15Z" fill="white"/>
</svg>
