<svg width="36" height="36" viewBox="0 0 36 36" fill="none" xmlns="http://www.w3.org/2000/svg">
<rect width="36" height="36" fill="url(#paint0_linear_2004_1132)"/>
<path d="M22.6851 15.5482C26.2049 15.4417 27.8591 16.6463 28.1187 16.8232C28.3783 17 28.6337 17.2151 27.8588 17.9329C25.898 19.7037 22.9449 19.2787 21.3621 18.4995C19.7793 17.7204 18.787 18.1218 17.3459 18.4995C15.9048 18.8773 15.5505 17.1773 15.834 16.9176C16.1175 16.6579 16.4246 17.1537 17.4404 16.587C18.4563 16.0204 20.11 15.7134 22.6851 15.5482Z" fill="white"/>
<path d="M22.9784 19.1511C23.2322 19.2057 23.4677 19.2345 23.6669 19.2498C23.9394 19.2706 24.1595 19.5025 24.0864 19.7659C23.7738 20.8919 22.7765 21.3787 22.2361 21.6279C22.496 21.2974 22.4724 20.7543 22.4015 20.164C22.3506 19.7398 22.3851 19.5229 22.505 19.3204C22.5988 19.1621 22.7984 19.1125 22.9784 19.1511Z" fill="white"/>
<path d="M24.0497 22.1237C24.9741 21.7374 25.0951 20.3702 24.9943 19.5464C24.9742 19.3817 24.9107 19.2668 24.7448 19.2668C24.5494 19.2668 24.3123 19.4262 24.281 19.6191C24.2393 19.8759 24.1563 20.1043 24.0611 20.2952C23.9529 20.5123 23.9658 20.8011 24.0419 21.0315C24.1541 21.3715 24.1926 21.8382 24.0497 22.1237Z" fill="white"/>
<circle cx="26.2086" cy="17.0778" r="0.376965" fill="#1F86E4"/>
<path d="M8.45595 13.1532C10.8579 13.0595 14.245 13.6354 15.7714 16.3905C15.834 16.5035 15.7857 16.6468 15.6962 16.7401C15.5201 16.9231 15.3789 17.2265 15.4794 17.5428C15.6306 18.0177 15.9074 18.4074 16.3163 18.6161C16.5348 18.7276 16.7036 19.231 16.5458 19.4188C16.0808 19.9721 15.6332 20.8028 15.6454 21.8407C15.6669 23.6901 13.4611 25.1791 12.2645 25.6229C12.0956 25.6854 11.9112 25.621 11.7987 25.4803C11.518 25.1286 11.2559 24.8069 11.0145 24.5018C11.9192 23.9451 13.7758 22.5751 14.4472 21.2245C13.307 22.3339 12.1983 23.1049 10.5556 23.9012C10.1553 23.3525 9.83616 22.8244 9.61512 22.2157C10.7905 21.8979 12.9539 21.1491 14.1327 20.1336C12.5994 20.8413 11.2409 21.261 9.42372 21.5614C9.23931 20.7422 9.20807 19.7541 9.36122 18.4168C9.38644 18.1966 9.39756 17.984 9.40223 17.7791C10.5309 17.008 11.6392 16.4604 13.0448 15.9442C11.8056 16.0844 10.4495 16.5913 9.38173 17.0907C9.33392 16.5542 9.21694 16.0788 9.05458 15.661C10.3684 15.2864 11.5943 15.085 13.0546 14.9813C11.7314 14.7678 10.0854 14.9204 8.80848 15.1297C8.61622 14.7738 8.39383 14.4701 8.16102 14.2176C7.85428 13.8849 8.00396 13.1713 8.45595 13.1532Z" fill="white"/>
<path d="M13.8554 11.0293C14.6877 10.9646 15.8312 10.9955 17.3222 11.2393C19.8319 11.6497 21.2761 13.3004 21.9248 14.5284C22.133 14.9225 21.8424 15.3588 21.3994 15.4073C19.8374 15.5776 18.9419 15.7855 18.3115 15.9942C17.8328 16.1524 17.3144 15.8091 17.1044 15.3506C16.9273 14.9638 16.6139 14.6393 16.0703 14.6866C15.0284 14.7609 13.9567 13.822 13.165 12.8477C12.5512 12.0924 12.8851 11.1048 13.8554 11.0293Z" fill="white"/>
<defs>
<linearGradient id="paint0_linear_2004_1132" x1="1.81055" y1="0.826173" x2="33.5391" y2="36" gradientUnits="userSpaceOnUse">
<stop stop-color="#34CBFE"/>
<stop offset="0.317308" stop-color="#259BFE"/>
<stop offset="0.538462" stop-color="#208BEA"/>
<stop offset="0.769231" stop-color="#1B7CD7"/>
<stop offset="1" stop-color="#1973CC"/>
</linearGradient>
</defs>
</svg>
