<svg width="48" height="48" viewBox="0 0 48 48" fill="none" xmlns="http://www.w3.org/2000/svg">
<path fill-rule="evenodd" clip-rule="evenodd" d="M20.1865 3.24902C11.4088 3.24902 4.29297 10.3648 4.29297 19.1426C4.29297 27.9204 11.4088 35.0362 20.1865 35.0362C23.4926 35.0362 26.5629 34.0267 29.106 32.2993L40.8551 44.9521L44.5191 41.5499L32.7513 28.8769C34.8379 26.1874 36.0801 22.8101 36.0801 19.1426C36.0801 10.3648 28.9643 3.24902 20.1865 3.24902ZM9.29297 19.1426C9.29297 13.1262 14.1702 8.24902 20.1865 8.24902C26.2029 8.24902 31.0801 13.1262 31.0801 19.1426C31.0801 25.1589 26.2029 30.0362 20.1865 30.0362C14.1702 30.0362 9.29297 25.1589 9.29297 19.1426Z" fill="#1A1A1A"/>
</svg>
